<?xml version="1.0" standalone="no"?>
<!DOCTYPE svg PUBLIC "-//W3C//DTD SVG 20010904//EN"
 "http://www.w3.org/TR/2001/REC-SVG-20010904/DTD/svg10.dtd">
<svg version="1.0" xmlns="http://www.w3.org/2000/svg"
 width="2000.000000pt" height="2000.000000pt" viewBox="0 0 2000.000000 2000.000000"
 preserveAspectRatio="xMidYMid meet">
<metadata>
Created by potrace 1.11, written by Peter Selinger 2001-2013
</metadata>
<g transform="translate(0.000000,2000.000000) scale(0.100000,-0.100000)"
fill="#000000" stroke="none">
<path d="M8564 19094 c-10 -8 -14 -13 -8 -10 7 3 15 -1 18 -10 3 -8 2 -12 -3
-9 -5 3 -13 0 -17 -6 -4 -7 -3 -9 4 -5 11 6 52 -30 52 -46 0 -5 5 -6 10 -3 6
3 10 -1 10 -10 0 -11 5 -15 16 -11 8 3 12 2 9 -4 -3 -5 3 -15 15 -22 11 -7 20
-19 20 -26 0 -7 5 -10 10 -7 6 3 10 -1 10 -10 0 -9 5 -13 10 -10 6 3 10 -1 10
-10 0 -8 10 -20 23 -25 12 -5 18 -9 12 -9 -5 -1 7 -12 27 -26 20 -14 39 -34
43 -45 4 -11 9 -19 13 -17 4 2 15 -4 24 -14 12 -12 13 -19 5 -23 -8 -3 -6 -5
3 -5 8 -1 28 -17 43 -36 17 -21 33 -33 40 -29 7 4 9 4 5 -1 -9 -9 66 -85 84
-85 6 0 8 -3 5 -6 -7 -7 30 -44 45 -44 4 0 8 -4 8 -10 0 -19 79 -92 91 -84 7
4 9 3 6 -3 -7 -11 37 -65 47 -56 3 3 6 2 6 -4 0 -15 36 -54 44 -46 3 3 6 -1 6
-10 0 -9 5 -17 11 -17 5 0 7 -4 4 -10 -4 -6 1 -7 11 -3 11 4 15 3 11 -5 -4 -6
13 -27 38 -47 25 -21 42 -41 39 -46 -3 -5 2 -6 10 -3 11 4 16 0 16 -12 0 -9 3
-15 6 -11 8 8 34 -18 34 -33 0 -6 5 -8 10 -5 6 3 10 0 10 -8 0 -8 18 -26 40
-41 22 -14 40 -33 40 -40 0 -8 9 -18 20 -21 11 -3 20 -13 20 -21 0 -8 4 -13 9
-9 5 3 12 -4 16 -15 3 -11 13 -20 21 -20 8 0 14 -5 14 -10 0 -6 11 -20 25 -32
13 -11 22 -25 19 -30 -3 -5 -2 -7 3 -6 9 3 55 -27 49 -33 -2 -2 6 -13 17 -24
11 -11 16 -14 12 -6 -5 9 -4 12 3 7 7 -4 12 -13 12 -19 0 -7 18 -27 40 -46 22
-18 37 -37 34 -42 -3 -5 2 -6 10 -3 9 3 16 2 16 -4 0 -13 118 -132 131 -132 5
0 9 -5 9 -10 0 -13 57 -70 70 -70 6 0 10 -7 10 -16 0 -8 5 -12 10 -9 6 3 10
-1 10 -10 0 -8 11 -20 24 -25 13 -5 27 -14 32 -21 5 -8 3 -9 -6 -4 -9 5 -11 4
-6 -3 4 -7 14 -12 22 -12 8 0 12 -4 9 -10 -3 -5 1 -10 9 -10 9 0 16 -7 16 -16
0 -10 6 -14 14 -11 11 4 13 1 9 -10 -4 -11 -2 -14 5 -9 7 4 12 1 12 -9 0 -9 4
-14 8 -11 4 2 19 -10 32 -27 39 -49 72 -77 83 -70 5 3 7 1 3 -5 -5 -9 95 -121
109 -122 3 0 5 -2 5 -5 0 -9 40 -45 50 -45 6 0 10 -4 10 -8 0 -12 79 -92 90
-92 5 0 12 -9 15 -20 4 -11 11 -18 16 -15 5 4 9 1 9 -4 0 -11 34 -49 48 -53 4
-2 6 -7 4 -11 -1 -4 6 -11 15 -14 29 -11 45 -30 30 -36 -6 -3 -1 -6 12 -6 13
-1 21 -4 18 -8 -4 -3 4 -14 19 -23 14 -10 26 -21 27 -26 1 -5 5 -8 9 -7 5 2 8
-4 8 -12 0 -9 10 -20 23 -25 12 -5 18 -9 13 -9 -5 -1 1 -9 12 -20 12 -10 19
-21 15 -25 -3 -3 3 -6 15 -6 11 0 24 -5 28 -12 5 -7 2 -8 -7 -3 -8 4 -5 -1 6
-12 11 -11 23 -19 28 -16 4 2 7 -3 7 -12 0 -9 5 -13 10 -10 6 3 10 0 10 -7 0
-11 55 -68 66 -68 9 0 51 -49 46 -54 -3 -3 2 -6 12 -6 9 0 14 -4 11 -10 -3 -5
2 -10 11 -10 10 0 15 -3 11 -6 -8 -8 54 -64 64 -58 4 2 6 -5 4 -17 -2 -12 -2
-19 1 -16 3 3 29 -19 58 -49 29 -30 58 -54 65 -54 7 0 9 -4 6 -10 -3 -5 -1
-10 5 -10 6 0 8 -4 5 -10 -3 -5 1 -10 9 -10 8 0 19 -6 23 -14 4 -8 12 -16 18
-18 5 -2 9 -6 8 -10 -2 -5 2 -8 8 -8 5 0 8 -4 4 -9 -3 -6 3 -8 14 -6 13 2 18
-1 15 -10 -3 -8 4 -16 16 -20 12 -4 19 -9 16 -12 -3 -3 6 -14 19 -25 14 -11
23 -24 19 -29 -3 -5 -1 -8 4 -7 12 4 67 -54 64 -66 -2 -5 5 -3 14 5 12 9 15 9
10 2 -4 -8 -2 -13 5 -13 7 0 9 -3 6 -6 -7 -7 44 -50 55 -47 4 2 5 -4 2 -12 -4
-8 -1 -15 6 -15 15 0 41 -26 33 -34 -4 -3 1 -6 11 -6 9 0 14 -4 11 -10 -3 -5
1 -10 10 -10 9 0 13 -4 10 -10 -3 -5 1 -10 9 -10 9 0 16 -7 16 -16 0 -8 5 -12
10 -9 6 3 10 -1 10 -10 0 -9 4 -14 9 -11 5 4 24 -13 42 -36 39 -49 61 -68 71
-62 4 3 5 -2 2 -11 -5 -11 0 -18 15 -22 11 -3 21 -10 21 -17 0 -6 9 -17 20
-24 12 -7 18 -17 15 -23 -4 -5 -3 -9 2 -8 15 4 43 -13 37 -22 -3 -5 2 -9 10
-9 9 0 16 -7 16 -15 0 -9 10 -20 23 -25 12 -5 18 -9 14 -9 -12 -1 19 -31 32
-31 6 0 11 -7 11 -16 0 -8 4 -13 9 -9 5 3 12 -4 16 -15 3 -11 13 -20 21 -20 8
0 12 -4 9 -10 -3 -5 -1 -10 5 -10 6 0 8 -5 5 -10 -4 -6 -3 -10 2 -9 17 3 33
-1 30 -8 -1 -5 1 -8 6 -8 4 0 16 -15 27 -32 11 -18 24 -33 30 -33 5 0 28 -20
51 -45 23 -25 45 -42 50 -39 5 3 6 -2 3 -10 -6 -15 6 -21 29 -17 5 1 6 -3 2
-9 -3 -5 1 -13 9 -16 9 -3 13 -10 10 -15 -3 -5 2 -9 10 -9 9 0 16 -7 16 -15 0
-14 13 -20 35 -15 5 1 7 -2 3 -5 -11 -11 10 -45 27 -45 8 0 15 -7 15 -16 0 -8
5 -12 10 -9 6 3 10 -1 10 -10 0 -9 5 -13 10 -10 6 3 10 0 10 -8 0 -15 27 -32
43 -28 5 1 6 -2 3 -7 -3 -5 6 -19 19 -32 13 -13 22 -27 19 -32 -3 -5 -2 -8 3
-7 18 3 33 -2 33 -11 0 -13 48 -59 54 -52 3 3 6 -6 7 -19 0 -13 3 -18 6 -12 3
10 8 10 19 -1 8 -8 14 -18 14 -22 0 -11 48 -52 54 -46 3 3 6 -2 6 -11 0 -8 9
-18 20 -22 11 -3 19 -9 17 -13 -3 -11 60 -72 67 -65 3 4 6 0 6 -8 0 -8 9 -22
20 -32 11 -9 20 -14 20 -11 0 3 7 -1 15 -10 8 -8 15 -21 15 -30 0 -9 7 -13 20
-11 11 2 19 1 17 -3 -3 -12 29 -52 36 -45 4 3 7 -1 7 -11 0 -9 5 -14 10 -11 6
3 10 -1 10 -10 0 -11 5 -15 16 -11 8 3 13 2 10 -3 -3 -4 37 -51 88 -104 52
-52 91 -98 88 -102 -4 -4 -2 -6 3 -5 18 4 35 0 33 -8 -4 -9 102 -112 116 -112
5 0 7 -3 4 -6 -7 -6 39 -54 52 -54 6 0 10 -5 10 -11 0 -13 38 -49 52 -49 4 0
8 -7 8 -16 0 -8 5 -12 10 -9 6 3 10 2 10 -3 0 -13 68 -81 74 -74 3 3 6 -2 6
-12 0 -9 5 -14 10 -11 6 3 10 -1 10 -10 0 -9 5 -13 10 -10 6 3 10 2 10 -3 0
-12 79 -92 91 -92 5 0 9 -4 9 -10 0 -11 52 -65 63 -65 4 0 7 -4 6 -10 0 -5 9
-13 21 -17 12 -4 19 -12 15 -17 -3 -5 4 -12 15 -16 11 -3 20 -13 20 -20 0 -17
34 -37 45 -27 3 4 6 3 5 -3 -5 -22 1 -35 16 -35 8 0 12 -4 9 -10 -3 -5 -2 -10
4 -10 5 0 22 -11 37 -25 15 -14 24 -25 21 -25 -3 0 8 -14 25 -30 16 -17 34
-27 40 -24 7 4 8 2 4 -4 -7 -12 46 -72 64 -72 5 0 10 -6 10 -14 0 -8 9 -18 20
-21 11 -4 19 -9 17 -13 -5 -9 71 -81 78 -74 3 3 5 0 5 -6 0 -12 79 -92 92 -92
4 0 8 -7 8 -16 0 -8 5 -12 10 -9 6 3 10 2 10 -3 0 -5 11 -21 25 -36 14 -15 25
-24 25 -20 0 3 7 1 15 -6 9 -7 14 -19 11 -26 -3 -8 -2 -13 2 -12 4 1 15 -2 25
-7 15 -6 16 -10 5 -16 -9 -6 -7 -9 10 -9 12 0 22 -4 22 -10 0 -5 11 -20 25
-34 14 -14 25 -23 25 -20 0 3 7 -1 15 -10 8 -8 15 -18 15 -22 0 -4 11 -17 25
-30 14 -13 25 -20 25 -17 0 3 25 -20 55 -52 30 -32 55 -63 55 -68 0 -5 7 -6
16 -3 11 4 15 2 11 -8 -3 -8 4 -22 16 -33 21 -18 21 -18 7 2 -14 18 -14 19 2
7 9 -8 14 -20 11 -28 -3 -9 2 -14 17 -14 11 0 19 -3 17 -7 -6 -11 30 -43 39
-35 4 4 4 -1 1 -11 -4 -11 -3 -16 3 -12 6 3 13 -1 16 -9 3 -9 10 -13 15 -10 5
3 9 -1 9 -9 0 -8 7 -18 16 -21 8 -3 12 -11 8 -17 -4 -8 -3 -9 4 -5 6 4 19 -5
28 -19 9 -14 23 -25 31 -25 8 0 11 -4 8 -10 -6 -9 8 -14 28 -11 5 1 6 -3 2 -8
-3 -6 5 -20 19 -32 14 -12 23 -27 19 -32 -3 -6 -2 -7 4 -4 6 4 19 -1 29 -9 10
-9 12 -12 4 -8 -8 4 8 -15 35 -42 28 -27 53 -48 58 -46 4 2 7 -1 7 -7 0 -13
52 -66 62 -64 4 2 10 -6 13 -17 4 -11 11 -18 16 -15 5 4 9 -4 10 -17 0 -13 3
-17 6 -11 3 10 8 10 19 -1 8 -8 14 -20 14 -26 0 -6 5 -8 10 -5 6 3 10 2 10 -3
0 -14 56 -72 69 -72 6 0 11 -7 11 -15 0 -9 11 -20 25 -25 14 -5 30 -21 37 -35
6 -14 17 -25 25 -25 7 0 13 -7 13 -17 0 -9 3 -14 6 -10 8 8 54 -34 54 -50 0
-8 5 -11 12 -7 8 5 9 2 5 -9 -3 -9 -3 -16 2 -14 4 1 25 -15 45 -35 21 -21 42
-38 47 -38 5 0 9 -4 9 -10 0 -13 48 -59 54 -52 3 3 6 -2 6 -12 0 -9 5 -14 10
-11 6 3 10 -1 10 -10 0 -9 5 -13 10 -10 6 3 10 2 10 -3 0 -14 47 -62 54 -55 3
4 6 0 6 -8 0 -8 9 -20 20 -27 11 -7 20 -20 20 -30 0 -14 2 -15 10 -2 5 8 10
10 10 4 0 -20 69 -86 81 -78 8 4 9 3 5 -4 -4 -6 2 -17 14 -24 11 -7 20 -19 20
-26 0 -7 4 -11 9 -8 5 3 11 -3 14 -14 3 -11 13 -20 22 -20 9 0 13 -4 10 -10
-3 -5 1 -10 10 -10 9 0 14 -4 11 -9 -3 -5 4 -11 15 -14 14 -4 18 -10 13 -18
-5 -9 -2 -10 10 -6 9 4 15 3 12 -2 -7 -11 39 -53 48 -44 4 4 4 0 1 -8 -4 -11
6 -24 29 -40 20 -13 36 -30 36 -36 0 -7 11 -15 25 -19 14 -3 22 -11 19 -16 -4
-6 -1 -8 7 -6 8 3 13 11 11 18 -2 7 3 10 12 7 9 -4 17 1 21 14 6 17 17 23 38
20 4 0 6 2 6 6 -3 21 3 33 17 33 8 0 12 5 9 10 -3 6 -3 10 2 10 4 0 19 10 33
21 14 11 19 17 11 13 -9 -5 -12 -3 -7 4 4 7 14 12 21 12 9 0 12 6 8 15 -3 9
-2 15 3 14 20 -3 35 2 30 10 -3 5 1 12 10 15 9 3 12 11 8 18 -5 9 -2 8 10 -1
9 -8 16 -10 15 -5 -4 16 13 44 22 38 5 -3 9 -1 9 5 0 15 50 62 60 56 5 -3 7 3
5 15 -2 11 -1 19 3 19 20 -3 33 2 27 11 -3 5 6 15 19 22 14 7 26 18 28 23 2 6
6 9 11 7 4 -1 7 4 7 12 0 8 7 17 16 20 8 3 12 10 9 16 -3 6 1 7 10 4 9 -4 15
-2 13 3 -2 5 13 25 31 44 19 19 31 28 26 20 -5 -10 -4 -12 3 -7 7 4 12 13 12
19 0 7 9 19 21 27 40 28 55 42 39 35 -8 -4 -6 1 4 9 11 9 24 16 29 16 4 0 6 4
2 9 -3 5 6 18 20 29 13 11 21 22 17 26 -3 4 2 4 13 0 15 -6 17 -4 12 10 -4 10
-3 15 3 11 6 -3 10 -1 10 5 0 6 4 9 9 5 5 -3 12 3 15 13 4 10 18 25 31 32 14
7 25 17 25 22 0 5 6 6 13 2 7 -5 6 0 -3 11 -9 11 -10 16 -2 11 7 -4 12 -2 12
4 0 6 5 8 12 4 8 -5 9 -2 5 10 -4 10 -3 15 3 11 12 -7 42 20 33 29 -4 3 4 6
16 6 16 0 21 4 18 14 -4 9 2 17 14 21 11 4 16 11 13 17 -5 8 -1 9 10 5 10 -4
15 -3 11 3 -3 6 -1 10 6 10 7 0 10 3 6 6 -8 8 43 55 54 49 4 -3 6 3 4 14 -2
13 1 18 9 15 7 -3 19 3 27 13 13 17 13 17 -6 3 -19 -14 -19 -14 -6 3 7 9 19
17 27 17 7 0 16 5 20 12 5 7 2 8 -7 3 -8 -4 -3 3 11 16 14 14 27 24 29 22 2
-1 14 9 27 22 13 14 28 25 34 25 9 0 11 6 10 25 -1 9 28 35 37 35 12 0 42 37
36 44 -4 3 1 6 10 6 10 0 17 7 17 16 0 8 5 12 10 9 6 -3 10 1 10 9 0 8 9 18
20 21 11 4 18 11 15 16 -4 5 1 9 9 9 9 0 16 7 16 16 0 8 4 13 9 10 5 -3 15 2
22 11 10 12 10 14 2 9 -7 -4 -13 -5 -13 -1 0 3 12 10 26 15 14 6 22 14 19 20
-3 5 3 10 14 10 12 0 21 5 21 11 0 5 -5 7 -12 3 -7 -4 -8 -3 -4 5 4 6 12 9 17
6 5 -4 9 -1 9 4 0 6 6 10 13 9 6 -2 11 3 9 10 -1 6 3 12 9 12 5 0 7 5 4 10 -4
6 -2 9 3 8 11 -4 71 59 64 67 -3 3 2 5 11 5 10 0 17 7 17 15 0 8 5 15 11 15 5
0 7 -5 3 -12 -4 -7 -3 -8 5 -4 6 4 10 15 9 24 -2 9 3 16 10 14 6 -1 12 3 12 9
0 5 5 7 11 3 7 -4 10 -1 7 7 -5 15 14 39 31 39 6 0 11 5 11 10 0 6 11 15 24
21 14 7 22 17 19 25 -3 8 1 14 11 14 9 0 16 7 16 15 0 8 3 14 8 13 15 -4 50
26 45 39 -3 7 2 13 10 13 8 0 21 8 28 17 12 14 12 16 0 8 -10 -5 -12 -4 -7 3
4 7 14 12 22 12 8 0 14 7 14 15 0 8 6 12 14 9 7 -3 16 2 20 11 4 11 2 14 -7 9
-8 -6 -8 -3 1 8 8 9 19 15 27 12 7 -3 16 0 21 7 5 8 3 10 -7 5 -8 -4 -6 -1 3
7 10 8 15 17 11 20 -3 4 1 7 11 7 9 0 14 5 11 10 -3 6 -1 10 4 10 15 0 51 37
44 44 -4 3 1 6 10 6 10 0 17 7 17 15 0 9 6 12 17 8 12 -5 15 -2 10 10 -4 10 0
18 13 22 10 3 24 13 32 23 12 16 11 16 -7 2 -19 -14 -19 -14 -6 3 7 9 19 17
27 17 7 0 16 10 19 21 6 17 9 19 16 8 7 -11 9 -10 9 4 0 9 5 17 11 17 5 0 7 5
3 12 -5 8 -2 9 10 5 14 -5 17 -3 12 8 -3 8 -1 15 4 15 5 0 21 12 36 26 19 20
21 25 7 20 -17 -6 -17 -5 -1 7 10 8 15 17 11 21 -9 9 -11 46 -2 40 10 -6 5 38
-6 56 -5 9 -4 15 4 18 9 3 9 8 -1 20 -10 12 -10 14 0 8 6 -4 12 -2 12 3 0 6
-6 11 -12 11 -8 0 -9 3 -3 8 15 11 17 32 3 32 -9 0 -9 3 1 9 9 6 11 15 6 27
-12 29 -14 45 -4 38 13 -8 11 10 -3 25 -11 11 -10 14 0 18 9 4 10 8 2 18 -8 9
-8 15 0 20 14 9 13 28 -2 19 -10 -6 -10 -4 0 7 14 16 16 33 2 24 -7 -4 -7 3 0
19 7 19 6 26 -3 26 -7 0 -8 3 -2 8 14 10 15 65 1 74 -8 6 -8 8 1 8 13 0 12 18
-2 39 -5 10 -4 16 4 19 9 3 9 8 -1 20 -10 12 -10 14 0 8 6 -4 12 -2 12 3 0 6
-6 11 -12 11 -8 0 -9 3 -3 8 15 11 17 32 3 32 -9 0 -8 4 2 10 12 7 13 13 3 28
-6 11 -8 24 -3 33 5 8 4 19 -3 28 -9 11 -9 15 1 19 9 3 10 7 2 17 -8 9 -8 15
0 20 14 9 13 28 -2 19 -10 -6 -10 -4 0 7 15 16 16 33 1 23 -8 -4 -8 0 0 15 9
16 9 21 -1 21 -8 0 -9 3 -3 8 12 8 13 32 1 50 -4 7 -2 19 4 27 10 12 10 15 -1
15 -12 0 -12 2 0 9 9 6 10 10 2 16 -9 5 -9 10 -1 20 8 10 7 14 -2 18 -10 4
-10 6 1 6 11 1 11 4 0 18 -10 11 -10 14 -1 9 6 -4 12 -3 12 1 0 5 -6 15 -12
22 -10 11 -10 13 0 7 6 -4 12 -2 12 3 0 6 -6 11 -12 11 -10 0 -10 2 0 9 8 4
14 12 14 16 0 4 -6 12 -14 16 -7 5 -8 9 -3 9 6 0 11 9 12 20 1 13 -2 18 -10
13 -8 -4 -8 -1 1 9 10 13 10 17 0 21 -10 4 -10 6 1 6 10 1 11 4 2 15 -8 10 -9
16 -1 21 14 9 13 28 -2 19 -10 -6 -10 -4 0 7 14 16 16 33 2 24 -7 -4 -7 3 0
19 7 19 6 26 -3 26 -7 0 -8 3 -2 8 15 11 17 74 2 65 -9 -5 -9 -3 -1 8 12 17
12 29 0 48 -6 10 -5 16 3 19 9 3 9 8 -1 20 -10 12 -10 14 0 8 6 -4 12 -2 12 3
0 6 -6 11 -12 11 -8 0 -9 3 -3 8 15 11 17 32 3 32 -9 0 -8 4 2 10 12 7 13 13
3 28 -6 11 -8 24 -3 33 5 8 4 19 -3 28 -9 11 -9 15 1 19 9 3 10 7 2 17 -8 9
-8 15 0 20 14 9 13 28 -2 19 -10 -6 -10 -4 0 7 15 16 16 33 1 23 -8 -4 -8 0 0
15 9 16 9 21 -1 21 -8 0 -9 3 -3 8 12 9 13 32 1 51 -5 8 -3 17 5 22 12 8 12
11 -1 19 -12 8 -12 10 -1 10 10 0 11 3 2 14 -9 11 -9 16 0 21 8 6 7 10 -2 16
-12 7 -12 9 0 9 11 0 11 3 0 17 -10 11 -10 14 -1 9 16 -9 16 6 0 22 -10 10
-10 15 2 22 13 9 13 11 0 20 -11 7 -11 10 -2 10 8 0 10 5 5 13 -11 18 -13 38
-2 31 13 -8 11 10 -3 25 -11 11 -10 14 0 18 9 4 10 8 2 18 -8 9 -8 15 0 20 14
9 13 28 -2 19 -10 -6 -10 -4 0 7 14 16 16 33 2 24 -7 -4 -7 3 0 19 7 19 6 26
-3 26 -8 0 -7 3 2 9 12 8 12 12 2 24 -9 11 -9 17 0 22 8 6 7 10 -2 16 -8 5 -9
9 -3 9 12 0 12 29 -1 50 -5 9 -4 15 4 18 9 3 9 8 -1 20 -10 12 -10 14 0 8 6
-4 12 -2 12 3 0 6 -6 11 -12 11 -8 0 -9 3 -3 8 15 11 17 32 3 32 -9 0 -8 4 2
10 12 7 13 13 3 28 -6 11 -8 24 -3 33 5 8 4 19 -3 28 -9 11 -9 15 1 19 9 3 10
7 2 17 -8 9 -8 15 0 20 14 9 13 28 -2 19 -10 -6 -10 -4 0 7 14 16 16 33 2 24
-7 -4 -7 3 0 19 7 19 6 26 -3 26 -7 0 -8 3 -2 8 15 11 17 74 2 65 -9 -5 -9 -3
-1 8 12 17 12 29 0 48 -6 10 -5 16 3 19 9 3 9 8 -1 20 -10 12 -10 14 0 8 6 -4
12 -2 12 3 0 6 -6 11 -12 11 -8 0 -9 3 -3 8 15 11 17 32 3 32 -9 0 -8 4 2 10
12 7 13 13 4 28 -8 12 -9 24 -2 35 6 12 5 17 -4 17 -8 0 -9 3 -3 8 15 11 17
74 2 65 -9 -5 -9 -3 -1 8 12 16 12 29 0 48 -5 7 -5 16 0 20 14 10 16 53 2 45
-7 -5 -8 -3 -2 7 13 21 14 39 1 39 -8 0 -8 3 -2 8 6 4 10 21 10 37 0 17 -4 33
-10 37 -7 5 -7 8 0 8 14 0 14 63 1 72 -8 5 -7 8 1 8 13 0 12 18 -2 39 -5 10
-4 16 4 19 9 3 9 8 -1 20 -10 12 -10 14 0 8 6 -4 12 -2 12 3 0 6 -6 11 -12 11
-8 0 -9 3 -3 8 15 11 17 32 3 32 -9 0 -8 4 2 10 12 8 13 13 3 29 -8 13 -9 22
-2 26 7 5 6 11 -2 21 -9 11 -9 14 0 14 7 0 9 5 4 13 -4 6 -9 21 -10 32 -2 15
-1 16 6 6 5 -8 8 2 7 30 0 26 -7 49 -16 57 -13 11 -13 11 0 7 11 -4 16 1 16
15 0 11 -5 20 -11 20 -5 0 -3 5 5 10 11 7 11 10 2 10 -7 0 -10 4 -7 10 11 18
14 49 5 55 -5 3 -7 -3 -5 -15 2 -11 0 -22 -5 -25 -4 -3 -7 3 -5 12 1 10 -2 26
-7 35 -7 14 -5 16 9 12 17 -5 17 -5 1 9 -21 16 -24 32 -5 21 6 -4 3 3 -8 16
-11 13 -15 21 -9 17 7 -4 11 4 10 22 -1 16 -4 27 -7 25 -4 -2 -10 3 -13 12 -3
8 -2 12 4 9 6 -3 10 -1 10 4 0 6 -5 11 -11 11 -5 0 -7 5 -4 10 4 6 1 17 -5 25
-10 12 -10 15 1 15 12 0 12 2 0 9 -7 5 -10 14 -7 20 4 6 3 11 -2 11 -6 0 -13
7 -16 16 -3 8 -2 12 4 9 16 -10 12 12 -5 29 -16 16 -20 30 -6 22 5 -4 4 5 -2
18 -7 13 -16 22 -20 19 -5 -3 -5 3 0 13 9 18 -7 70 -18 59 -3 -2 -6 6 -6 18
-1 12 -7 23 -13 25 -7 3 -7 9 2 20 11 13 11 14 -1 7 -11 -6 -13 -4 -8 8 3 8 0
18 -8 21 -8 3 -12 14 -10 25 2 13 -3 25 -16 31 -11 6 -17 15 -14 21 4 5 1 9
-4 9 -6 0 -11 5 -11 11 0 5 6 7 13 4 6 -4 2 2 -11 12 -13 10 -24 29 -25 41 -1
13 -6 21 -14 18 -7 -3 -10 1 -6 10 3 7 0 14 -6 14 -6 0 -11 9 -11 20 0 11 -3
20 -7 20 -5 0 -17 12 -27 27 -11 14 -14 23 -8 19 7 -4 12 -2 12 3 0 10 -13 15
-31 13 -3 -1 -6 6 -7 14 -1 7 -3 21 -4 29 -1 8 -5 12 -10 9 -4 -3 -13 6 -19
20 -7 14 -16 23 -20 20 -5 -3 -9 2 -9 10 0 8 -8 20 -17 25 -10 6 -14 11 -8 11
5 0 -4 12 -21 28 -17 15 -23 23 -14 17 9 -5 4 2 -11 17 -15 14 -25 29 -22 32
4 3 -1 6 -11 6 -9 0 -14 5 -11 10 3 6 -2 10 -11 10 -10 0 -15 3 -11 6 7 8 -33
54 -48 54 -16 0 -65 56 -57 65 3 3 -2 3 -11 -1 -10 -4 -17 -2 -15 4 2 5 -1 11
-7 12 -5 1 -15 11 -21 22 -6 12 -20 23 -30 24 -10 2 -27 13 -37 26 -10 13 -16
16 -12 8 4 -8 -7 1 -24 20 -18 19 -30 29 -26 23 4 -9 1 -11 -9 -7 -9 3 -13 10
-10 15 3 5 -4 9 -16 9 -12 0 -18 5 -15 10 3 6 -3 10 -14 10 -12 0 -21 4 -21 8
0 5 -16 14 -35 22 -19 7 -32 17 -29 21 2 4 -7 6 -20 5 -14 -2 -31 5 -40 16 -9
10 -21 16 -26 13 -6 -3 -10 -1 -10 4 0 6 -9 11 -21 11 -13 0 -18 4 -13 12 5 8
2 9 -9 5 -10 -3 -17 -2 -17 4 0 6 -4 7 -10 4 -5 -3 -10 -1 -10 5 0 6 -4 9 -9
5 -5 -3 -16 2 -24 10 -12 11 -17 12 -20 2 -3 -6 -6 -3 -6 8 -1 17 -3 17 -11 5
-7 -11 -10 -11 -10 -2 0 7 -6 12 -12 11 -27 -3 -39 1 -32 13 5 7 3 8 -6 3 -7
-4 -16 -2 -21 6 -6 10 -9 11 -9 2 0 -7 -5 -13 -11 -13 -5 0 -7 5 -3 12 5 8 2
9 -9 5 -10 -3 -17 -2 -17 3 0 5 -7 6 -17 3 -10 -4 -14 -2 -10 4 4 6 0 14 -9
17 -8 3 -12 2 -9 -4 3 -6 -1 -7 -9 -4 -9 3 -16 11 -16 18 0 6 -5 4 -10 -4 -8
-12 -10 -12 -10 -1 0 11 -3 11 -17 0 -14 -12 -16 -12 -8 0 6 11 3 13 -13 9
-12 -4 -25 -1 -29 4 -3 7 -1 8 5 4 7 -4 12 -2 12 3 0 14 -6 14 -30 1 -13 -7
-21 -7 -26 2 -5 7 -3 8 7 3 8 -5 10 -4 6 0 -11 13 -38 15 -31 3 4 -6 0 -7 -12
-1 -11 5 -34 8 -52 7 -17 -1 -30 1 -28 5 7 11 -35 11 -55 0 -12 -6 -20 -5 -25
3 -4 6 -3 8 4 4 6 -3 13 -3 16 2 2 4 -6 8 -20 8 -13 0 -24 -6 -24 -13 0 -10
-7 -7 -21 6 -20 18 -24 19 -42 6 -18 -13 -23 -13 -39 2 -14 13 -20 13 -33 3
-8 -7 -15 -8 -15 -3 0 5 -9 9 -20 10 -13 1 -18 -2 -13 -10 5 -9 3 -9 -8 -1
-21 16 -61 15 -80 -2 -13 -12 -19 -12 -25 -3 -4 7 -3 10 4 5 6 -3 13 -2 16 3
4 6 -13 9 -38 8 -25 0 -43 -4 -40 -8 2 -4 0 -11 -6 -14 -6 -4 -9 -1 -8 7 4 16
-40 18 -61 3 -10 -7 -13 -7 -9 0 4 7 -8 11 -32 11 -25 0 -37 -4 -33 -10 3 -6
3 -8 -2 -4 -4 4 -15 2 -24 -5 -14 -10 -14 -10 -3 4 11 15 8 17 -27 16 -22 0
-38 -4 -35 -8 2 -4 -1 -11 -7 -15 -7 -4 -9 -3 -5 4 10 16 -13 25 -29 12 -9 -8
-15 -8 -15 -2 0 6 -21 10 -49 9 -30 -1 -47 -6 -44 -12 4 -5 3 -7 -2 -3 -4 4
-15 2 -24 -5 -14 -10 -14 -10 -3 4 11 15 8 17 -27 16 -22 0 -38 -4 -35 -8 2
-4 0 -11 -6 -14 -6 -4 -9 -1 -8 7 4 16 -40 18 -61 3 -10 -7 -13 -7 -9 0 4 7
-8 11 -32 11 -25 0 -37 -4 -33 -10 3 -6 3 -8 -2 -4 -4 4 -15 2 -24 -5 -14 -10
-14 -10 -3 4 11 15 8 17 -27 16 -22 0 -38 -4 -35 -8 2 -4 0 -11 -6 -14 -6 -4
-9 -1 -8 7 4 16 -40 18 -61 3 -10 -7 -13 -7 -9 1 8 12 -100 13 -119 1 -7 -5
-13 -4 -13 1 0 6 -22 10 -49 9 -30 -1 -47 -6 -44 -12 4 -5 3 -7 -2 -3 -4 4
-15 2 -24 -5 -14 -10 -14 -10 -3 4 11 15 8 17 -27 16 -22 0 -38 -4 -35 -8 2
-4 0 -11 -6 -14 -6 -4 -9 -1 -8 7 4 16 -40 18 -61 3 -11 -8 -13 -7 -7 4 6 9 5
12 -5 9 -8 -3 -13 -12 -11 -19 2 -11 -1 -11 -10 1 -15 17 -78 24 -78 9 0 -6 5
-7 12 -3 7 5 8 3 3 -6 -6 -10 -10 -10 -20 3 -9 13 -14 14 -25 4 -10 -9 -11 -9
-6 1 5 8 -2 12 -24 12 -17 0 -29 -4 -26 -8 3 -5 -1 -9 -9 -9 -8 0 -12 4 -9 9
3 4 -2 8 -10 8 -10 0 -13 -6 -10 -17 5 -17 5 -17 -6 0 -12 19 -34 13 -24 -6 3
-7 0 -5 -8 3 -16 18 -53 27 -43 10 6 -9 2 -9 -15 0 -15 8 -20 8 -16 1 4 -6 2
-11 -3 -11 -6 0 -11 4 -11 8 0 11 -101 9 -119 -2 -9 -6 -12 -5 -8 0 3 6 -11
10 -33 10 -25 0 -37 -4 -33 -10 3 -6 3 -8 -2 -4 -4 4 -15 2 -24 -5 -14 -10
-14 -10 -3 4 11 14 9 17 -15 17 -16 0 -35 -7 -45 -15 -12 -11 -18 -11 -24 -2
-4 7 -3 10 4 5 6 -3 13 -2 16 3 4 6 -13 9 -38 8 -25 0 -43 -4 -40 -8 2 -4 0
-11 -6 -14 -6 -4 -9 -1 -8 7 4 16 -40 18 -61 3 -10 -7 -13 -7 -9 0 4 7 -8 11
-32 11 -25 0 -37 -4 -33 -10 3 -6 3 -8 -2 -4 -4 4 -15 2 -24 -5 -14 -10 -14
-10 -3 4 11 15 8 17 -27 16 -22 0 -38 -4 -35 -8 2 -4 -3 -9 -11 -12 -9 -4 -12
-1 -8 9 7 20 -7 18 -23 -3 -13 -17 -14 -17 -7 2 6 18 5 18 -10 6 -11 -9 -17
-10 -17 -2 0 6 -9 11 -20 11 -14 0 -18 -5 -14 -17 5 -14 4 -15 -4 -4 -11 16
-82 24 -82 10 0 -5 -5 -9 -11 -9 -5 0 -7 6 -3 13 5 8 2 8 -9 -2 -11 -9 -17
-10 -17 -2 0 6 -9 11 -20 11 -14 0 -18 -5 -14 -17 5 -15 4 -15 -4 -4 -12 17
-72 23 -89 8 -9 -6 -13 -6 -13 1 0 6 -21 10 -49 9 -30 -1 -47 -6 -44 -12 4 -5
3 -7 -2 -3 -4 4 -15 2 -24 -5 -14 -10 -14 -10 -3 4 11 15 8 17 -27 16 -22 0
-38 -4 -35 -8 2 -4 0 -11 -6 -14 -6 -4 -9 -1 -8 7 4 16 -40 18 -61 3 -10 -7
-13 -7 -9 0 4 7 -8 11 -32 11 -25 0 -37 -4 -33 -10 3 -6 3 -8 -2 -4 -4 4 -15
2 -24 -5 -14 -10 -14 -10 -3 4 11 15 8 17 -27 16 -22 0 -38 -4 -35 -8 2 -4 0
-11 -6 -14 -6 -4 -9 -1 -8 7 4 16 -40 18 -61 3 -10 -7 -13 -7 -8 1 9 16 -67
12 -87 -5 -14 -12 -16 -12 -10 3 3 9 1 16 -5 16 -6 0 -11 -4 -11 -10 0 -5 -5
-10 -11 -10 -5 0 -7 6 -3 13 5 8 2 8 -9 -2 -11 -9 -17 -10 -17 -2 0 6 -9 11
-20 11 -14 0 -18 -5 -14 -17 5 -14 4 -15 -4 -4 -11 16 -82 24 -82 10 0 -5 -5
-9 -11 -9 -5 0 -7 6 -3 13 5 7 0 6 -11 -3 -11 -9 -16 -10 -11 -2 4 6 2 12 -3
12 -6 0 -11 -6 -11 -12 0 -8 -3 -9 -8 -3 -10 14 -56 20 -48 6 4 -6 2 -11 -3
-11 -6 0 -11 5 -11 10 0 6 -7 10 -16 10 -9 0 -12 -5 -8 -12 4 -7 4 -10 -1 -6
-4 4 -17 3 -29 -3 -20 -9 -20 -9 -3 5 17 13 14 14 -35 12 -30 -1 -60 -6 -67
-11 -9 -5 -12 -4 -8 1 3 6 -11 10 -33 10 -25 0 -37 -4 -33 -10 3 -6 3 -8 -2
-4 -4 4 -15 2 -24 -5 -14 -10 -14 -10 -3 4 11 14 9 17 -15 17 -16 0 -35 -7
-45 -15 -12 -11 -18 -11 -24 -2 -4 7 -3 10 4 5 6 -3 13 -2 16 3 4 6 -13 9 -38
8 -25 0 -43 -4 -40 -8 2 -4 0 -11 -6 -14 -6 -4 -9 -1 -8 7 4 16 -40 18 -61 3
-10 -7 -13 -7 -9 0 4 7 -8 11 -32 11 -25 0 -37 -4 -33 -10 3 -6 3 -8 -2 -4 -4
4 -15 2 -24 -5 -14 -10 -14 -10 -3 4 11 15 8 17 -27 16 -22 0 -38 -4 -35 -8 2
-4 -1 -11 -7 -15 -7 -4 -9 -3 -5 4 10 16 -13 25 -29 12 -9 -8 -15 -8 -15 -2 0
6 -21 10 -49 9 -30 -1 -47 -6 -44 -12 4 -5 3 -7 -2 -3 -4 4 -15 2 -24 -5 -14
-10 -14 -10 -3 4 11 15 8 17 -27 16 -22 0 -38 -4 -35 -8 2 -4 0 -11 -6 -14 -6
-4 -9 -1 -8 7 4 16 -40 18 -61 3 -10 -7 -13 -7 -9 0 4 7 -8 11 -32 11 -25 0
-37 -4 -33 -10 3 -6 3 -8 -2 -4 -4 4 -15 2 -24 -5 -14 -10 -14 -10 -3 4 11 15
8 17 -27 16 -22 0 -38 -4 -35 -8 2 -4 0 -11 -6 -14 -6 -4 -9 -1 -8 7 4 16 -40
18 -61 3 -10 -7 -13 -7 -9 1 8 12 -100 13 -119 1 -7 -5 -13 -4 -13 1 0 6 -22
10 -49 9 -30 -1 -47 -6 -44 -12 4 -5 3 -7 -2 -3 -4 4 -15 2 -24 -5 -14 -10
-14 -10 -3 4 11 15 8 17 -27 16 -22 0 -38 -4 -35 -8 2 -4 0 -11 -6 -14 -6 -4
-9 -1 -8 7 4 16 -40 18 -61 3 -10 -7 -13 -7 -9 0 4 7 -8 11 -32 11 -25 0 -37
-4 -33 -10 3 -6 3 -8 -2 -4 -4 4 -15 2 -24 -5 -14 -10 -14 -10 -3 4 11 15 8
17 -27 16 -22 0 -38 -4 -35 -8 2 -4 0 -11 -6 -14 -6 -4 -9 -1 -8 7 4 16 -40
18 -61 3 -10 -7 -13 -7 -9 0 4 7 -8 11 -32 11 -21 0 -36 -4 -33 -9 3 -5 -5 -4
-17 3 -15 8 -20 8 -16 1 4 -6 2 -11 -3 -11 -6 0 -11 5 -11 10 0 6 -7 10 -15
10 -8 0 -15 -5 -15 -11 0 -5 5 -7 12 -3 7 5 8 3 3 -6 -6 -10 -10 -10 -20 3 -9
13 -14 14 -25 4 -10 -9 -11 -9 -6 1 5 7 1 12 -9 12 -9 0 -13 -4 -10 -10 3 -5
1 -10 -4 -10 -6 0 -11 4 -11 8 0 4 -61 8 -135 8 -74 0 -132 -3 -129 -7 2 -4 0
-11 -6 -14 -6 -4 -9 -1 -8 7 4 16 -40 18 -61 3 -10 -7 -13 -7 -9 0 4 7 -8 11
-32 11 -25 0 -37 -4 -33 -10 3 -6 3 -8 -2 -4 -4 4 -15 2 -24 -5 -14 -10 -14
-10 -3 4 11 15 8 17 -27 16 -22 0 -38 -4 -35 -8 2 -4 -3 -9 -11 -12 -9 -4 -12
-1 -8 9 7 20 -7 18 -23 -3 -13 -17 -14 -17 -7 2 6 18 5 18 -10 6 -11 -9 -17
-10 -17 -2 0 6 -9 11 -20 11 -14 0 -18 -5 -14 -17 5 -14 4 -15 -4 -4 -11 16
-82 24 -82 10 0 -5 -5 -9 -11 -9 -5 0 -7 6 -3 13 5 8 2 8 -9 -2 -11 -9 -17
-10 -17 -2 0 6 -9 11 -20 11 -14 0 -18 -5 -14 -17 5 -15 4 -15 -4 -4 -12 17
-72 23 -89 8 -9 -6 -13 -6 -13 1 0 6 -21 10 -49 9 -30 -1 -47 -6 -44 -12 4 -5
3 -7 -2 -3 -4 4 -15 2 -24 -5 -14 -10 -14 -10 -3 4 11 15 8 17 -27 16 -22 0
-38 -4 -35 -8 2 -4 0 -11 -6 -14 -6 -4 -9 -1 -8 7 4 16 -40 18 -61 3 -10 -7
-13 -7 -9 0 4 7 -8 11 -32 11 -25 0 -37 -4 -33 -10 3 -6 3 -8 -2 -4 -4 4 -15
2 -24 -5 -14 -10 -14 -10 -3 4 11 15 8 17 -27 16 -22 0 -38 -4 -35 -8 2 -4 0
-11 -6 -14 -6 -4 -9 -1 -8 7 4 16 -40 18 -61 3 -10 -7 -13 -7 -8 1 9 16 -67
12 -87 -5 -14 -12 -16 -12 -10 3 8 21 -5 21 -22 -1 -13 -17 -14 -17 -7 2 6 18
5 18 -10 6 -11 -9 -17 -10 -17 -2 0 6 -9 11 -20 11 -14 0 -18 -5 -14 -17 5
-14 4 -15 -4 -4 -11 16 -82 24 -82 10 0 -5 -5 -9 -11 -9 -5 0 -7 6 -3 13 5 8
2 8 -9 -2 -11 -9 -17 -10 -17 -2 0 6 -9 11 -20 11 -14 0 -18 -5 -14 -17 5 -15
4 -15 -4 -4 -11 15 -75 24 -66 9 3 -4 0 -8 -5 -8 -6 0 -11 4 -11 8 0 11 -101
9 -119 -2 -10 -6 -12 -5 -7 2 8 14 -42 13 -61 0 -6 -5 -14 -5 -18 2 -3 5 -11
10 -16 10 -6 0 -7 -4 -4 -10 3 -5 1 -10 -4 -10 -6 0 -11 5 -11 10 0 14 -27 12
-33 -2 -4 -10 -6 -9 -6 1 -1 11 -4 11 -17 0 -11 -9 -18 -9 -22 -2 -8 12 -101
11 -121 -2 -9 -5 -12 -4 -8 1 3 6 -11 10 -33 10 -25 0 -37 -4 -33 -10 3 -6 3
-8 -2 -4 -4 4 -15 2 -24 -5 -14 -10 -14 -10 -3 4 11 15 8 17 -27 16 -22 0 -38
-4 -35 -8 2 -4 -1 -11 -7 -15 -7 -4 -9 -3 -5 4 10 16 -13 25 -29 12 -9 -8 -15
-8 -15 -2 0 6 -21 10 -49 9 -30 -1 -47 -6 -44 -12 4 -5 3 -7 -2 -3 -4 4 -15 2
-24 -5 -14 -10 -14 -10 -3 4 11 15 8 17 -27 16 -22 0 -38 -4 -35 -8 2 -4 0
-11 -6 -14 -6 -4 -9 -1 -8 6 4 16 -71 21 -89 6 -9 -6 -13 -6 -13 2 0 16 -23
14 -46 -5z m206 2 c0 -3 -4 -8 -10 -11 -5 -3 -10 -1 -10 4 0 6 5 11 10 11 6 0
10 -2 10 -4z m240 0 c0 -3 -4 -8 -10 -11 -5 -3 -10 -1 -10 4 0 6 5 11 10 11 6
0 10 -2 10 -4z m755 -6 c-3 -5 -12 -10 -18 -10 -7 0 -6 4 3 10 19 12 23 12 15
0z m365 6 c0 -3 -4 -8 -10 -11 -5 -3 -10 -1 -10 4 0 6 5 11 10 11 6 0 10 -2
10 -4z m240 0 c0 -3 -4 -8 -10 -11 -5 -3 -10 -1 -10 4 0 6 5 11 10 11 6 0 10
-2 10 -4z m355 -6 c-3 -5 -12 -10 -18 -10 -7 0 -6 4 3 10 19 12 23 12 15 0z
m205 6 c0 -3 -4 -8 -10 -11 -5 -3 -10 -1 -10 4 0 6 5 11 10 11 6 0 10 -2 10
-4z m240 0 c0 -3 -4 -8 -10 -11 -5 -3 -10 -1 -10 4 0 6 5 11 10 11 6 0 10 -2
10 -4z m40 -2 c0 -8 -19 -13 -24 -6 -3 5 1 9 9 9 8 0 15 -2 15 -3z m40 2 c0
-2 -7 -7 -16 -10 -8 -3 -12 -2 -9 4 6 10 25 14 25 6z m480 0 c0 -3 -4 -8 -10
-11 -5 -3 -10 -1 -10 4 0 6 5 11 10 11 6 0 10 -2 10 -4z m240 0 c0 -3 -4 -8
-10 -11 -5 -3 -10 -1 -10 4 0 6 5 11 10 11 6 0 10 -2 10 -4z m400 0 c0 -3 -4
-8 -10 -11 -5 -3 -10 -1 -10 4 0 6 5 11 10 11 6 0 10 -2 10 -4z m240 0 c0 -3
-4 -8 -10 -11 -5 -3 -10 -1 -10 4 0 6 5 11 10 11 6 0 10 -2 10 -4z m240 0 c0
-3 -4 -8 -10 -11 -5 -3 -10 -1 -10 4 0 6 5 11 10 11 6 0 10 -2 10 -4z m240 0
c0 -3 -4 -8 -10 -11 -5 -3 -10 -1 -10 4 0 6 5 11 10 11 6 0 10 -2 10 -4z m80
0 c0 -3 -4 -8 -10 -11 -5 -3 -10 -1 -10 4 0 6 5 11 10 11 6 0 10 -2 10 -4z
m435 -6 c-3 -5 -12 -10 -18 -10 -7 0 -6 4 3 10 19 12 23 12 15 0z m365 6 c0
-3 -4 -8 -10 -11 -5 -3 -10 -1 -10 4 0 6 5 11 10 11 6 0 10 -2 10 -4z m240 0
c0 -3 -4 -8 -10 -11 -5 -3 -10 -1 -10 4 0 6 5 11 10 11 6 0 10 -2 10 -4z m355
-6 c-3 -5 -12 -10 -18 -10 -7 0 -6 4 3 10 19 12 23 12 15 0z m205 6 c0 -3 -4
-8 -10 -11 -5 -3 -10 -1 -10 4 0 6 5 11 10 11 6 0 10 -2 10 -4z m240 0 c0 -3
-4 -8 -10 -11 -5 -3 -10 -1 -10 4 0 6 5 11 10 11 6 0 10 -2 10 -4z m80 0 c0
-3 -4 -8 -10 -11 -5 -3 -10 -1 -10 4 0 6 5 11 10 11 6 0 10 -2 10 -4z m720 0
c0 -3 -4 -8 -10 -11 -5 -3 -10 -1 -10 4 0 6 5 11 10 11 6 0 10 -2 10 -4z m400
0 c0 -3 -4 -8 -10 -11 -5 -3 -10 -1 -10 4 0 6 5 11 10 11 6 0 10 -2 10 -4z
m240 0 c0 -3 -4 -8 -10 -11 -5 -3 -10 -1 -10 4 0 6 5 11 10 11 6 0 10 -2 10
-4z m240 0 c0 -3 -4 -8 -10 -11 -5 -3 -10 -1 -10 4 0 6 5 11 10 11 6 0 10 -2
10 -4z m240 0 c0 -3 -4 -8 -10 -11 -5 -3 -10 -1 -10 4 0 6 5 11 10 11 6 0 10
-2 10 -4z m80 0 c0 -3 -4 -8 -10 -11 -5 -3 -10 -1 -10 4 0 6 5 11 10 11 6 0
10 -2 10 -4z"/>
<path d="M17150 19099 c0 -5 5 -7 10 -4 6 3 10 8 10 11 0 2 -4 4 -10 4 -5 0
-10 -5 -10 -11z"/>
<path d="M2605 19000 c6 -10 4 -12 -9 -7 -9 4 -15 3 -12 -2 3 -5 -1 -12 -10
-15 -23 -9 -26 -8 -18 7 5 8 2 8 -9 -2 -9 -7 -17 -10 -17 -6 0 4 -8 1 -17 -6
-11 -10 -14 -10 -9 -1 9 15 1 15 -26 1 -11 -6 -18 -7 -15 -2 3 4 -5 8 -18 8
-16 0 -20 -4 -14 -11 5 -7 3 -11 -6 -11 -8 0 -15 4 -15 9 0 5 -7 2 -17 -7 -10
-10 -27 -15 -44 -13 -15 3 -28 2 -27 -1 2 -19 -4 -24 -12 -11 -6 9 -10 11 -10
3 0 -7 -7 -10 -15 -7 -8 4 -15 1 -15 -6 0 -6 -4 -8 -10 -5 -5 3 -10 1 -10 -5
0 -6 -12 -8 -31 -5 -26 5 -30 3 -25 -11 6 -15 4 -15 -11 -3 -15 12 -16 12 -11
-2 5 -12 1 -15 -18 -13 -13 1 -24 -2 -24 -7 0 -6 -4 -8 -9 -5 -15 9 -42 -5
-34 -18 4 -6 -2 -4 -12 4 -17 13 -18 13 -13 0 5 -12 -1 -16 -26 -15 -23 0 -31
-4 -30 -16 1 -11 -5 -15 -17 -12 -12 3 -19 0 -19 -8 0 -12 -2 -12 -9 -1 -7 11
-9 11 -14 -2 -3 -8 -24 -20 -47 -26 -22 -6 -38 -15 -35 -20 5 -9 -24 -15 -48
-11 -5 1 -5 -4 -1 -10 5 -9 2 -10 -9 -6 -11 4 -14 2 -10 -9 3 -10 0 -12 -10
-8 -9 3 -25 -4 -36 -15 -12 -12 -24 -22 -28 -23 -5 -2 -7 -7 -5 -11 1 -5 -2
-6 -8 -2 -5 3 -25 -10 -45 -30 -19 -20 -35 -34 -35 -30 0 3 -6 0 -14 -7 -8 -7
-12 -16 -9 -21 2 -4 1 -7 -4 -6 -16 4 -43 -13 -36 -24 4 -6 0 -8 -11 -4 -10 4
-15 3 -11 -3 3 -6 1 -10 -5 -10 -6 0 -8 -6 -4 -12 4 -7 4 -10 -1 -6 -13 12
-47 -12 -41 -28 3 -8 2 -12 -3 -9 -5 3 -12 1 -16 -5 -4 -6 -11 -8 -16 -5 -8 6
-13 -8 -10 -27 0 -5 -9 -8 -22 -8 -18 0 -19 -2 -7 -10 13 -9 7 -14 -12 -11 -5
0 -8 -6 -8 -14 0 -8 -8 -15 -17 -15 -15 0 -16 -2 -3 -10 13 -8 12 -10 -4 -10
-12 0 -16 -5 -12 -16 3 -8 2 -12 -4 -9 -6 3 -10 1 -10 -5 0 -6 -5 -8 -12 -4
-6 4 -8 3 -5 -3 4 -6 -2 -18 -13 -28 -11 -10 -20 -24 -20 -32 0 -8 -4 -12 -9
-8 -5 3 -12 1 -16 -5 -3 -5 0 -10 7 -11 7 0 3 -5 -9 -11 -13 -6 -23 -17 -23
-25 0 -8 -5 -11 -11 -7 -8 4 -9 -1 -4 -16 5 -16 4 -20 -5 -15 -7 4 -13 -1 -17
-14 -3 -11 -9 -19 -13 -16 -4 3 -11 -2 -14 -11 -4 -10 -2 -13 7 -9 6 4 2 -2
-10 -13 -25 -22 -31 -37 -11 -27 7 4 -1 -6 -17 -22 -17 -15 -25 -24 -18 -19
23 15 14 -4 -13 -29 -14 -13 -27 -35 -28 -49 0 -13 -5 -22 -9 -19 -5 3 -7 -1
-6 -8 4 -23 -12 -49 -25 -42 -6 4 -4 -2 4 -13 8 -10 10 -16 6 -12 -12 10 -39
-29 -31 -42 3 -6 0 -10 -7 -10 -9 0 -9 -3 2 -10 8 -5 10 -10 4 -10 -7 0 -15
-7 -18 -16 -3 -8 -2 -12 4 -9 6 3 7 -1 4 -9 -3 -9 -10 -14 -14 -11 -4 3 -11
-2 -14 -11 -4 -10 -2 -13 6 -8 7 5 8 3 2 -7 -4 -8 -9 -20 -10 -27 -2 -8 -11
-23 -21 -35 -10 -11 -12 -17 -5 -13 16 10 15 -5 -3 -31 -12 -16 -12 -22 -2
-26 9 -4 8 -6 -2 -6 -11 -1 -11 -4 0 -18 12 -14 12 -16 0 -8 -11 6 -13 4 -8
-8 3 -9 0 -18 -9 -21 -15 -6 -15 -27 1 -38 6 -5 3 -8 -7 -8 -15 0 -16 -4 -8
-26 7 -16 7 -23 0 -19 -6 4 -8 -6 -6 -25 2 -17 -1 -33 -6 -36 -6 -4 -5 -10 3
-15 12 -7 12 -9 0 -9 -11 0 -11 -3 0 -17 12 -14 12 -16 -2 -11 -9 4 -16 1 -16
-8 0 -7 5 -10 11 -7 6 4 2 -4 -9 -17 -11 -13 -14 -20 -8 -16 15 8 18 -10 4
-19 -10 -6 -7 -37 5 -57 4 -7 3 -8 -4 -4 -16 10 -15 -7 1 -23 9 -11 9 -12 0
-7 -10 5 -13 -25 -12 -133 0 -100 3 -141 12 -145 9 -3 9 -5 0 -5 -10 -1 -13
-29 -13 -107 0 -81 3 -104 12 -98 11 6 11 4 1 -7 -8 -8 -13 -43 -13 -96 0 -60
4 -83 13 -83 9 0 9 -2 0 -8 -16 -10 -16 -224 0 -234 9 -6 9 -8 0 -8 -10 0 -13
-30 -13 -115 0 -85 3 -115 13 -115 9 0 9 -2 0 -8 -16 -10 -15 -304 1 -314 8
-6 8 -8 -1 -8 -17 0 -17 -261 0 -272 9 -6 9 -8 0 -8 -17 0 -17 -67 0 -73 9 -4
9 -6 0 -6 -10 -1 -13 -27 -13 -96 0 -69 3 -95 13 -95 9 0 9 -2 0 -8 -16 -10
-16 -224 0 -234 9 -6 9 -8 0 -8 -17 0 -18 -421 -1 -432 10 -6 10 -8 1 -8 -9 0
-13 -22 -13 -75 0 -53 4 -75 13 -75 9 0 9 -2 0 -8 -16 -10 -17 -192 -1 -192
10 0 10 -2 1 -8 -16 -10 -15 -304 1 -314 8 -6 8 -8 -1 -8 -16 0 -16 -222 1
-232 8 -6 8 -8 -1 -8 -17 0 -17 -230 0 -230 9 0 9 -2 0 -8 -17 -11 -17 -223 0
-234 9 -6 9 -8 0 -8 -9 0 -13 -22 -13 -75 0 -53 4 -75 13 -75 9 0 9 -2 0 -8
-17 -11 -17 -223 0 -234 9 -6 9 -8 0 -8 -10 0 -13 -30 -13 -115 0 -85 3 -115
13 -115 9 0 9 -2 0 -8 -17 -11 -17 -232 0 -232 9 0 9 -2 0 -8 -16 -10 -16
-304 0 -314 9 -6 9 -8 0 -8 -17 0 -17 -261 0 -272 9 -6 9 -8 0 -8 -18 0 -18
-146 0 -153 9 -4 9 -6 0 -6 -9 -1 -13 -19 -13 -56 0 -37 4 -55 13 -55 9 0 9
-2 0 -8 -17 -11 -17 -232 0 -232 9 0 9 -2 0 -8 -17 -11 -17 -223 0 -234 9 -6
9 -8 0 -8 -10 0 -13 -26 -13 -94 0 -66 4 -96 13 -99 9 -4 9 -6 0 -6 -18 -1
-18 -351 0 -351 9 0 9 -2 0 -8 -16 -10 -16 -304 0 -314 9 -6 9 -8 0 -8 -17 0
-16 -230 0 -230 9 0 9 -2 0 -8 -16 -10 -16 -224 0 -234 9 -6 9 -8 0 -8 -17 0
-17 -221 0 -232 9 -6 9 -8 0 -8 -9 0 -13 -22 -13 -75 0 -53 4 -75 13 -75 9 0
9 -2 0 -8 -17 -11 -17 -232 0 -232 9 0 9 -2 -1 -8 -8 -6 -12 -38 -11 -108 1
-113 6 -144 20 -123 8 12 11 12 19 -1 8 -13 10 -12 10 4 0 11 3 16 7 13 3 -4
17 6 31 21 14 15 30 26 35 24 5 -1 6 2 2 8 -3 5 -1 10 5 10 6 0 8 5 5 10 -3 6
0 10 7 10 8 0 20 9 28 19 7 11 17 18 22 15 4 -3 8 1 8 8 0 8 9 20 19 28 11 7
18 17 15 22 -3 4 2 8 10 8 9 0 16 7 16 15 0 8 5 15 11 15 14 0 40 26 33 33 -3
3 13 17 35 32 23 14 39 30 36 35 -3 6 -2 10 4 10 14 0 60 47 53 54 -5 6 14 10
31 7 5 -1 6 2 4 6 -3 5 1 17 9 28 8 10 14 16 14 12 0 -9 40 31 41 41 0 4 11
13 25 20 13 7 22 17 20 21 -3 4 6 13 20 20 14 6 22 16 19 21 -3 6 -2 10 4 10
15 0 101 86 101 101 0 7 2 10 6 7 6 -7 94 78 94 92 0 5 3 10 8 10 4 0 18 10
32 21 14 11 19 18 13 14 -28 -14 -11 5 22 25 19 12 35 28 35 36 0 8 6 13 13
12 6 -2 11 5 11 14 -1 10 4 14 12 11 8 -3 14 0 14 7 0 13 26 41 32 35 3 -3 10
6 17 19 7 13 24 30 37 37 13 7 24 18 24 26 0 7 3 12 8 12 19 -3 25 2 12 11
-12 8 -10 10 8 10 13 0 20 4 17 10 -3 6 1 10 9 10 14 0 20 11 18 31 -1 4 5 6
13 5 8 0 14 3 14 7 0 12 28 37 40 37 6 0 11 7 11 16 0 8 4 13 8 10 5 -3 15 6
22 20 10 18 16 21 22 12 6 -10 8 -9 8 2 0 8 15 29 34 47 19 17 32 34 29 37 -4
3 -1 6 6 6 16 0 41 25 41 40 0 6 4 8 10 5 5 -3 15 5 21 19 7 14 16 23 21 20 4
-3 12 5 17 18 6 13 10 19 10 13 1 -5 8 1 17 13 8 12 20 20 25 17 5 -3 6 2 2
11 -4 10 -2 15 4 11 10 -6 43 26 43 43 0 6 7 10 16 10 8 0 12 5 9 10 -3 6 1
10 9 10 9 0 16 7 16 16 0 8 5 12 10 9 6 -3 10 1 10 9 0 9 3 15 8 14 4 -2 17 7
30 20 12 12 20 22 17 22 -3 0 0 6 7 14 7 8 16 12 20 10 4 -2 9 5 13 16 3 11
12 19 18 17 7 -1 11 6 11 15 -1 10 1 17 5 16 20 -2 31 4 31 18 0 8 3 13 8 11
4 -3 16 5 27 16 12 12 14 17 5 13 -8 -4 -6 -1 4 6 11 7 28 21 38 31 10 9 23
17 28 17 6 0 9 4 8 8 -2 4 13 23 32 42 19 19 34 38 32 42 -1 4 5 8 13 8 8 0
15 7 15 16 0 8 3 13 8 11 9 -6 33 19 25 27 -4 3 -1 6 5 6 15 0 52 36 52 51 0
5 3 8 8 6 4 -3 16 5 27 16 11 11 14 16 6 12 -9 -5 -12 -4 -7 3 4 7 12 12 17
12 16 0 99 87 91 95 -4 3 -2 5 4 3 13 -3 114 97 114 113 0 5 6 8 13 7 6 -2 11
3 9 10 -1 6 5 12 13 12 8 0 15 7 15 16 0 8 5 12 10 9 6 -3 10 1 10 10 0 9 3
14 8 12 9 -6 33 19 25 27 -4 3 1 6 10 6 10 0 17 7 17 15 0 8 6 15 14 15 8 0
18 9 21 20 3 11 13 20 21 20 8 0 14 7 14 16 0 9 5 12 12 8 8 -5 9 -2 5 9 -3 9
-1 19 5 23 7 5 8 2 3 -6 -5 -8 -3 -11 6 -8 8 3 13 11 11 17 -1 6 5 11 13 11 8
0 15 6 15 14 0 8 5 18 12 22 7 5 8 3 3 -7 -8 -12 -6 -12 8 -1 9 8 15 17 14 20
-1 4 3 8 8 10 6 2 15 13 22 25 7 12 12 18 13 13 0 -5 12 4 27 20 15 16 27 32
25 36 -1 4 7 10 18 13 11 4 18 11 15 16 -4 5 -2 9 3 9 14 0 82 67 75 74 -4 3
0 6 8 6 8 0 25 12 39 27 14 15 19 23 11 18 -10 -5 -12 -4 -7 3 4 7 12 12 18
12 12 0 78 70 78 83 0 4 6 6 13 5 6 -2 11 3 9 10 -2 11 10 16 31 13 4 0 7 6 7
14 0 8 5 15 10 15 6 0 15 11 22 25 6 13 15 22 19 19 4 -2 13 5 19 16 6 11 16
17 22 14 6 -4 9 -3 5 2 -3 5 1 18 9 29 8 10 14 16 14 12 0 -4 8 1 18 11 11 9
17 20 15 25 -2 4 3 7 11 7 9 0 15 3 14 8 -2 4 1 9 7 12 17 9 55 51 55 60 0 6
5 9 11 8 6 -2 14 3 17 11 3 9 0 11 -8 6 -8 -5 -11 -4 -6 3 4 6 14 8 23 5 11
-4 14 -3 9 5 -4 7 -2 12 5 12 12 0 59 50 59 63 0 5 5 5 10 2 6 -3 10 1 10 10
0 9 5 13 10 10 6 -3 10 1 10 10 0 9 3 14 8 12 8 -4 43 29 36 35 -2 3 7 11 21
18 14 7 25 19 25 27 0 7 3 12 8 11 10 -4 61 49 54 56 -5 6 14 10 31 7 5 -1 6
3 2 9 -3 5 -1 10 5 10 6 0 8 5 5 10 -3 6 -2 10 4 10 13 0 67 50 55 50 -5 1 4
8 19 16 15 8 25 19 22 24 -4 6 -2 10 3 10 14 0 72 56 72 69 0 7 5 9 10 6 9 -6
14 8 11 28 -1 5 3 6 9 2 6 -3 28 13 50 36 22 24 40 40 40 35 0 -4 7 -1 15 8
18 18 20 30 3 20 -8 -4 -10 -3 -5 2 5 5 12 9 15 9 10 0 92 85 92 95 0 5 8 6
18 3 15 -6 16 -5 2 12 -9 11 -10 16 -2 11 7 -4 12 -2 12 4 0 6 4 9 8 6 5 -3
15 6 22 20 8 13 20 22 27 20 7 -3 12 -2 12 2 -3 20 2 33 11 27 6 -3 10 1 10
10 0 9 4 14 9 10 5 -3 13 4 16 16 6 17 9 19 16 8 7 -11 9 -10 9 4 0 9 7 17 16
17 8 0 12 5 9 10 -3 6 5 14 19 20 14 5 26 12 26 15 0 4 -5 3 -11 0 -6 -4 -5 2
2 13 7 12 16 20 19 19 8 -3 80 73 80 84 0 6 5 7 10 4 6 -3 10 2 10 11 0 10 3
15 6 12 7 -7 90 74 87 84 -2 4 6 10 17 13 11 4 18 11 15 16 -4 5 -1 9 4 9 16
0 51 32 45 42 -3 4 2 8 10 8 9 0 16 7 16 17 0 9 3 14 6 10 7 -7 64 49 64 63 0
6 6 9 13 7 6 -1 11 4 10 11 -3 11 10 17 32 12 6 -1 7 2 3 6 -4 4 0 13 10 21 9
8 11 11 3 7 -9 -5 -12 -3 -7 4 4 7 14 12 22 12 8 0 13 4 10 8 -3 5 8 16 25 26
16 9 27 22 24 27 -4 5 1 9 10 9 9 0 13 5 10 10 -6 9 7 14 27 11 4 0 5 5 2 12
-3 8 6 18 21 25 14 6 25 19 25 27 0 9 5 13 11 10 6 -4 13 2 16 14 3 12 12 21
20 21 8 0 12 4 9 8 -3 5 6 15 19 22 14 7 25 20 25 27 0 8 5 11 10 8 6 -3 10 1
10 9 0 8 5 18 12 22 7 5 9 2 4 -7 -4 -8 2 -3 13 11 11 14 21 29 21 34 0 5 3 7
6 3 6 -6 42 23 43 36 2 17 36 43 43 33 5 -7 8 -6 8 3 0 8 16 29 35 48 19 19
35 39 35 44 0 6 5 7 11 4 6 -4 13 2 16 14 3 12 12 21 19 21 8 0 19 10 24 23 5
12 9 18 9 14 1 -12 31 19 31 32 0 6 7 7 17 4 10 -4 14 -2 10 4 -8 13 17 36 27
26 4 -4 4 1 0 10 -4 12 -2 17 7 15 8 -2 13 3 12 10 -2 6 4 12 13 12 8 0 12 5
9 10 -3 6 1 10 9 10 9 0 16 3 16 8 1 4 12 21 26 37 15 17 23 23 19 15 -4 -8 3
-4 14 10 11 14 21 29 21 34 0 5 3 7 6 3 8 -8 44 25 44 41 0 7 5 10 10 7 6 -3
10 -2 10 3 0 5 18 27 40 50 22 22 40 37 40 34 0 -4 9 7 20 23 11 17 20 27 20
23 0 -4 10 3 23 15 13 12 22 24 21 27 -3 8 23 29 30 23 3 -3 11 6 17 20 7 15
15 24 19 22 9 -6 50 42 43 49 -6 6 12 10 30 7 4 0 7 8 7 20 0 14 5 19 14 16
10 -4 13 -1 10 7 -3 8 0 17 7 22 8 5 10 3 4 -5 -5 -10 -2 -9 13 0 12 7 19 16
16 20 -2 5 4 13 15 18 11 6 22 20 26 31 3 11 9 19 13 17 10 -3 158 146 155
155 -2 5 2 8 8 8 13 0 69 58 69 71 0 4 6 6 14 3 8 -3 16 3 19 16 3 12 10 19
16 15 6 -3 11 1 11 9 0 9 5 16 11 16 5 0 7 5 4 10 -3 6 1 10 9 10 9 0 16 7 16
15 0 8 6 14 13 12 6 -1 11 4 10 11 -2 6 3 12 10 12 8 0 20 11 27 25 7 14 16
23 18 20 6 -5 52 46 52 58 0 5 4 6 8 3 4 -2 17 9 27 25 11 16 25 29 32 29 6 0
15 5 19 12 5 7 3 8 -6 3 -9 -5 -11 -4 -6 3 4 7 14 12 22 12 8 0 14 8 14 17 0
9 2 14 6 11 7 -8 94 79 94 94 0 6 3 9 6 5 8 -7 34 17 34 32 0 6 7 7 17 4 10
-4 14 -2 9 5 -3 6 3 17 14 25 11 7 17 17 13 20 -3 4 -1 7 6 7 7 0 22 11 33 25
11 14 24 23 29 20 5 -4 6 2 2 11 -4 10 -2 15 4 11 13 -8 45 31 37 45 -4 6 -3
8 4 4 12 -7 72 46 72 64 0 5 3 9 8 7 4 -1 8 1 9 6 4 13 28 35 34 31 8 -4 49
43 49 57 0 5 5 7 10 4 6 -3 14 5 20 19 5 15 15 25 22 24 7 -2 12 2 11 9 -2 6
6 15 17 18 11 4 18 10 15 14 -2 4 7 14 20 21 13 7 22 17 19 22 -3 4 2 8 11 8
9 0 14 3 12 8 -3 4 1 13 9 20 8 7 14 10 14 7 0 -3 6 0 14 7 8 7 12 16 9 21 -2
4 0 7 6 7 5 0 22 11 37 25 15 14 24 25 20 25 -4 0 -1 6 6 14 7 8 18 13 23 13
6 -1 9 4 8 11 -2 6 3 12 10 12 8 0 20 11 27 25 7 13 16 22 20 20 5 -3 10 2 14
10 3 8 13 15 23 15 15 0 16 2 3 10 -9 6 -10 10 -3 10 15 0 153 137 145 145 -5
5 14 9 31 6 4 0 7 5 7 13 0 8 9 21 20 29 11 8 17 17 13 20 -3 4 1 7 10 7 9 0
17 7 17 17 0 9 3 14 6 10 6 -6 54 37 54 48 0 12 28 34 34 28 3 -4 6 2 6 12 0
10 3 16 6 12 8 -7 24 8 48 45 10 15 22 25 27 22 5 -3 9 2 9 11 0 9 3 14 8 12
9 -4 52 40 45 46 -2 3 5 8 16 12 12 3 26 15 32 26 5 11 14 17 19 14 6 -4 7 1
3 11 -4 10 -2 15 3 11 6 -3 16 4 23 15 11 18 11 20 -3 15 -10 -4 -13 -1 -9 8
3 8 -2 18 -11 21 -9 3 -14 9 -11 14 2 4 -7 13 -20 20 -14 7 -32 24 -40 37 -9
13 -20 21 -25 18 -6 -3 -7 1 -4 9 4 10 -1 18 -12 23 -21 8 -54 40 -54 52 0 5
-9 11 -20 14 -11 3 -20 12 -20 21 0 9 -3 16 -7 16 -13 0 -63 47 -63 59 0 6 -7
11 -15 11 -8 0 -15 7 -15 15 0 8 -7 15 -15 15 -8 0 -15 4 -15 9 0 10 -52 67
-59 64 -3 0 -17 14 -31 32 -14 19 -35 39 -47 46 -13 7 -21 14 -19 17 6 6 -104
112 -116 112 -5 0 -7 4 -3 9 3 5 -4 12 -15 16 -11 3 -20 13 -20 21 0 8 -4 14
-10 14 -14 0 -50 37 -43 44 4 3 -1 6 -10 6 -10 0 -17 7 -17 16 0 8 -4 13 -9
10 -4 -3 -13 6 -19 19 -7 14 -16 25 -21 25 -12 0 -91 78 -91 90 0 5 -7 10 -15
10 -8 0 -15 7 -15 16 0 8 -5 12 -10 9 -6 -3 -14 5 -20 19 -5 14 -12 26 -15 26
-4 0 -3 -6 1 -12 5 -7 -13 10 -39 37 -26 27 -47 52 -47 57 0 4 -6 8 -14 8 -8
0 -18 9 -21 20 -4 11 -9 19 -13 17 -4 -2 -15 4 -24 15 -10 10 -16 18 -13 18 3
0 -13 18 -36 40 -23 22 -46 40 -51 40 -4 0 -7 6 -5 13 1 6 -3 11 -10 10 -6 -2
-15 6 -18 17 -4 11 -13 20 -21 20 -8 0 -14 4 -14 9 0 13 -108 119 -115 113 -3
-3 -5 2 -5 11 0 9 -7 17 -16 17 -8 0 -13 4 -9 9 3 5 -4 12 -15 16 -11 3 -19
11 -17 18 1 6 -2 11 -8 12 -17 1 -36 16 -30 25 3 5 -4 11 -15 15 -11 4 -18 11
-15 16 4 5 1 9 -5 9 -10 0 -74 59 -75 70 0 3 -3 4 -7 3 -5 -2 -8 2 -8 8 0 5
-4 7 -10 4 -5 -3 -7 0 -4 9 3 9 -2 17 -15 21 -12 3 -19 11 -16 16 6 8 -8 13
-27 10 -5 0 -7 2 -7 7 3 19 -2 33 -10 28 -5 -3 -12 5 -15 19 -4 14 -10 24 -14
22 -4 -1 -8 3 -10 8 -2 6 -14 16 -28 23 -13 7 -24 17 -24 22 0 6 -6 10 -14 10
-8 0 -17 8 -20 18 -4 11 -18 25 -31 32 -14 7 -25 17 -25 21 0 13 -57 68 -64
62 -3 -4 -6 1 -6 10 0 9 -5 17 -11 17 -5 0 -7 5 -4 10 3 6 -1 10 -10 10 -9 0
-13 5 -10 10 3 6 1 10 -5 10 -7 0 -36 25 -65 54 -29 30 -55 53 -58 50 -3 -3
-8 3 -11 13 -3 10 -22 29 -41 42 -19 13 -37 32 -40 42 -4 11 -11 17 -16 14 -5
-4 -9 1 -9 9 0 9 -4 16 -10 16 -5 0 -23 14 -38 30 -16 17 -34 30 -41 30 -6 0
-11 5 -11 11 0 8 -6 7 -17 -2 -11 -10 -14 -10 -9 -1 4 7 1 12 -8 12 -9 0 -16
-6 -16 -12 0 -10 -3 -9 -9 1 -7 11 -9 11 -14 0 -4 -11 -6 -11 -6 -1 -1 8 -6
10 -13 5 -19 -11 -39 -13 -32 -2 3 5 1 9 -5 9 -5 0 -13 -5 -16 -10 -4 -6 -12
-7 -18 -3 -19 11 -47 11 -47 -1 0 -6 -4 -5 -9 2 -4 8 -12 14 -16 14 -4 0 -12
-6 -16 -14 -7 -10 -9 -10 -9 0 0 6 -7 12 -15 12 -8 0 -15 -6 -15 -12 0 -10 -3
-9 -9 1 -7 11 -9 11 -14 0 -4 -11 -6 -11 -6 -1 -1 8 -6 10 -13 5 -19 -11 -39
-13 -32 -2 3 5 1 9 -5 9 -5 0 -13 -5 -16 -10 -4 -6 -12 -7 -18 -3 -19 11 -47
11 -47 -1 0 -6 -4 -5 -9 2 -4 8 -12 14 -16 14 -4 0 -12 -6 -16 -14 -7 -10 -9
-10 -9 0 0 6 -5 12 -11 12 -5 0 -7 -5 -3 -12 5 -7 3 -8 -7 -2 -19 12 -42 11
-51 -1 -5 -6 -8 -5 -8 4 0 11 -3 11 -17 0 -11 -10 -14 -10 -9 -1 9 15 -6 16
-21 1 -8 -8 -13 -8 -17 0 -5 8 -13 8 -28 0 -15 -8 -19 -8 -14 0 9 14 -7 14
-21 0 -8 -8 -13 -8 -17 0 -5 8 -13 8 -28 0 -15 -8 -19 -8 -14 0 9 14 -7 14
-21 0 -8 -8 -13 -8 -17 0 -5 8 -13 8 -28 0 -15 -8 -19 -8 -14 0 4 6 3 11 -3
11 -5 0 -13 -5 -16 -10 -4 -6 -12 -7 -18 -3 -19 11 -47 11 -47 -1 0 -7 -3 -7
-8 -1 -11 15 -32 17 -32 3 0 -9 -3 -9 -9 1 -8 13 -12 13 -27 0 -11 -9 -15 -9
-10 -1 4 6 3 12 -3 12 -5 0 -12 -6 -14 -12 -4 -10 -6 -10 -6 0 -1 8 -6 10 -13
5 -19 -11 -39 -13 -32 -2 3 5 1 9 -5 9 -5 0 -13 -5 -16 -10 -4 -6 -12 -7 -18
-3 -19 11 -47 11 -47 -1 0 -6 -4 -5 -9 2 -4 8 -12 14 -16 14 -4 0 -12 -6 -16
-14 -7 -10 -9 -10 -9 0 0 6 -7 12 -15 12 -8 0 -15 -6 -15 -12 0 -10 -3 -9 -9
1 -7 11 -9 11 -14 0 -4 -11 -6 -11 -6 -1 -1 8 -6 10 -13 5 -19 -11 -39 -13
-32 -2 3 5 1 9 -5 9 -5 0 -13 -5 -16 -10 -4 -6 -12 -7 -18 -3 -17 11 -41 10
-49 -2 -5 -6 -8 -5 -8 3 0 6 -5 12 -11 12 -5 0 -7 -6 -3 -12 6 -10 4 -10 -7 0
-17 15 -53 16 -43 0 5 -7 3 -8 -7 -2 -19 12 -33 12 -41 -1 -5 -6 -8 -5 -8 4 0
10 -3 11 -14 2 -10 -8 -16 -9 -21 -1 -3 5 -11 10 -16 10 -6 0 -7 -6 -3 -12 5
-8 0 -7 -11 2 -10 8 -19 15 -20 15 -1 0 -10 -7 -20 -15 -11 -8 -16 -10 -12 -3
5 8 0 11 -13 10 -11 -1 -20 -5 -20 -10 0 -5 -6 -5 -13 2 -10 8 -17 7 -27 -2
-10 -9 -11 -9 -6 1 4 6 3 12 -3 12 -5 0 -12 -6 -14 -12 -4 -10 -6 -10 -6 0 -1
8 -6 10 -13 5 -19 -11 -37 -12 -44 -2 -8 14 -26 11 -18 -3 5 -10 4 -10 -6 -1
-9 9 -19 9 -33 2 -14 -8 -18 -8 -13 0 4 6 3 11 -3 11 -5 0 -13 -5 -16 -10 -4
-6 -12 -7 -18 -3 -19 11 -47 11 -47 -1 0 -7 -3 -7 -8 -1 -11 15 -32 17 -32 3
0 -9 -3 -9 -9 1 -8 13 -12 13 -27 0 -11 -9 -15 -9 -10 -1 4 6 3 12 -3 12 -5 0
-12 -6 -14 -12 -4 -10 -6 -10 -6 0 -1 8 -6 10 -13 5 -19 -11 -37 -12 -44 -2
-8 14 -26 11 -18 -3 5 -10 4 -10 -6 -1 -9 9 -19 9 -33 2 -14 -8 -18 -8 -13 0
4 6 3 11 -3 11 -5 0 -13 -5 -16 -10 -4 -6 -12 -7 -18 -3 -19 11 -47 11 -47 -1
0 -7 -3 -7 -8 -1 -11 15 -32 17 -32 3 0 -9 -3 -9 -9 1 -8 13 -12 13 -27 0 -11
-9 -15 -9 -10 -1 4 6 3 12 -3 12 -5 0 -12 -6 -14 -12 -4 -10 -6 -10 -6 0 -1 8
-6 10 -13 5 -19 -11 -37 -12 -44 -2 -8 14 -26 11 -18 -3 5 -10 4 -10 -6 -1 -9
9 -19 9 -33 2 -14 -8 -18 -8 -13 0 4 6 3 11 -3 11 -5 0 -13 -5 -16 -10 -4 -6
-12 -7 -18 -3 -19 11 -47 11 -47 -1 0 -7 -3 -7 -8 -1 -11 15 -32 17 -32 2 0
-8 -3 -8 -9 2 -8 13 -12 13 -27 0 -11 -9 -15 -9 -10 -1 4 6 3 12 -3 12 -5 0
-12 -6 -14 -12 -4 -10 -6 -10 -6 0 -1 8 -6 10 -13 5 -19 -11 -37 -12 -44 -2
-3 5 -10 9 -15 9 -6 0 -7 -5 -3 -12 5 -7 3 -8 -7 -3 -20 13 -49 13 -49 1 0 -7
-3 -7 -8 -1 -11 15 -32 17 -32 2 0 -8 -3 -8 -9 2 -8 13 -12 13 -27 0 -11 -9
-15 -9 -10 -1 4 6 3 12 -3 12 -5 0 -12 -6 -14 -12 -4 -10 -6 -10 -6 0 -1 8 -6
10 -13 5 -19 -11 -39 -13 -32 -2 3 5 1 9 -5 9 -5 0 -13 -5 -16 -10 -4 -6 -12
-7 -18 -3 -19 11 -47 11 -47 -1 0 -6 -4 -5 -9 2 -4 8 -12 14 -16 14 -4 0 -12
-6 -16 -14 -7 -10 -9 -10 -9 0 0 6 -7 12 -15 12 -8 0 -15 -6 -15 -12 0 -10 -3
-9 -9 1 -7 11 -9 11 -14 0 -4 -11 -6 -11 -6 -1 -1 8 -6 10 -13 5 -19 -11 -39
-13 -32 -2 3 5 1 9 -5 9 -5 0 -13 -5 -16 -10 -4 -6 -12 -7 -18 -3 -19 11 -47
11 -47 -1 0 -6 -4 -5 -9 2 -4 8 -12 14 -16 14 -4 0 -12 -6 -16 -14 -7 -10 -9
-10 -9 0 0 6 -5 12 -11 12 -5 0 -7 -5 -3 -12 5 -7 3 -8 -7 -2 -19 12 -42 11
-51 -1 -5 -6 -8 -5 -8 3 0 6 -5 12 -11 12 -5 0 -7 -5 -3 -12 5 -8 3 -8 -7 -2
-20 13 -93 13 -101 0 -5 -8 -11 -7 -19 1 -9 9 -18 9 -32 2 -14 -8 -18 -8 -13
0 9 14 -7 14 -21 0 -8 -8 -13 -8 -17 0 -5 8 -13 8 -28 0 -15 -8 -19 -8 -14 0
4 6 3 11 -3 11 -5 0 -13 -5 -16 -10 -4 -6 -12 -7 -18 -3 -22 14 -49 14 -41 1
6 -10 4 -11 -7 0 -7 6 -17 12 -22 12 -4 0 -5 -6 -1 -12 5 -9 2 -9 -9 1 -14 11
-17 11 -17 0 0 -11 -2 -11 -10 1 -9 13 -10 13 -10 0 0 -12 -2 -12 -9 -1 -6 10
-10 10 -16 1 -6 -9 -10 -9 -16 1 -7 11 -9 11 -9 -1 0 -13 -1 -13 -10 0 -8 12
-10 12 -11 -5 l0 -20 -9 20 c-5 11 -9 14 -9 7 -1 -8 -6 -10 -13 -6 -24 15 -49
11 -65 -10 -11 -15 -14 -16 -10 -4 4 10 1 20 -5 24 -7 5 -8 2 -3 -6z m45 -10
c0 -5 -5 -10 -11 -10 -5 0 -7 5 -4 10 3 6 8 10 11 10 2 0 4 -4 4 -10z"/>
<path d="M18380 18606 c0 -2 8 -10 18 -17 15 -13 16 -12 3 4 -13 16 -21 21
-21 13z"/>
<path d="M1060 17899 c0 -5 5 -7 10 -4 6 3 10 8 10 11 0 2 -4 4 -10 4 -5 0
-10 -5 -10 -11z"/>
<path d="M9847 14264 c-1 -1 -49 -5 -107 -8 -1036 -62 -2020 -505 -2750 -1237
-160 -161 -190 -195 -369 -414 -132 -163 -326 -474 -448 -720 -119 -239 -255
-605 -308 -831 -9 -38 -18 -76 -20 -84 -10 -37 -47 -218 -50 -245 -3 -16 -7
-41 -9 -55 -10 -46 -20 -128 -32 -255 -3 -33 -9 -96 -14 -140 -10 -103 -10
-446 0 -550 5 -44 11 -111 14 -150 3 -38 8 -79 10 -91 2 -11 7 -46 10 -78 4
-31 15 -103 26 -159 10 -56 21 -113 24 -127 14 -79 75 -307 121 -446 130 -398
322 -780 567 -1129 50 -71 94 -132 97 -135 4 -3 22 -25 41 -50 144 -186 380
-432 576 -600 339 -290 745 -539 1152 -704 161 -66 408 -150 499 -171 10 -2
61 -15 113 -28 97 -25 349 -73 430 -82 56 -6 124 -14 170 -20 182 -23 634 -23
802 -1 18 3 62 7 98 11 62 5 85 8 155 20 17 3 57 9 90 15 33 5 92 17 130 25
39 8 93 20 120 25 132 26 499 147 670 220 143 62 388 183 457 226 21 13 40 24
43 24 3 0 18 8 33 19 15 10 81 53 147 96 66 43 139 92 161 109 23 17 54 40 70
51 194 139 499 427 674 635 30 36 57 67 60 70 4 3 19 23 35 45 17 22 33 42 36
45 28 24 208 290 299 440 55 91 230 430 230 444 0 3 11 29 24 58 34 75 96 236
96 248 0 6 4 18 10 28 18 33 115 372 136 477 32 163 38 194 49 270 3 17 7 44
9 60 3 17 8 57 11 90 3 33 8 74 10 90 18 134 24 470 12 645 -16 234 -24 306
-53 475 -8 50 -17 103 -20 119 -3 16 -6 32 -8 35 -2 3 -7 22 -10 41 -27 167
-152 563 -245 775 -46 105 -173 356 -216 429 -25 42 -45 78 -45 81 0 17 -311
461 -340 485 -3 3 -24 27 -45 55 -114 142 -388 416 -538 538 -25 21 -52 44
-59 50 -39 39 -419 307 -434 307 -3 0 -36 17 -72 39 -126 73 -147 85 -292 156
-256 127 -570 244 -820 306 -96 23 -244 55 -300 64 -19 3 -42 8 -50 10 -8 2
-35 6 -60 9 -25 3 -54 7 -65 10 -44 8 -186 22 -330 32 -87 5 -404 12 -408 8z"/>
<path d="M14950 12666 c0 -2 8 -10 18 -17 15 -13 16 -12 3 4 -13 16 -21 21
-21 13z"/>
<path d="M19080 11440 c0 -6 -3 -9 -7 -7 -5 3 -21 -9 -38 -25 -16 -17 -24 -27
-16 -23 9 5 12 4 7 -3 -4 -6 -14 -8 -24 -5 -9 3 -14 3 -10 -1 7 -9 -33 -52
-45 -48 -5 1 -6 -2 -2 -8 3 -5 -1 -13 -9 -16 -9 -3 -16 -13 -16 -22 0 -8 -3
-12 -7 -9 -4 4 -25 -12 -46 -35 -22 -24 -44 -42 -48 -41 -5 2 -5 -5 -2 -14 4
-11 3 -14 -5 -9 -7 4 -12 3 -12 -1 0 -5 -13 -17 -30 -26 -16 -10 -30 -23 -30
-28 0 -5 -18 -28 -39 -49 -22 -22 -36 -40 -33 -40 4 0 -8 -9 -26 -20 -20 -12
-30 -25 -26 -32 4 -7 3 -8 -4 -4 -7 4 -12 3 -12 -3 0 -5 -9 -12 -20 -16 -11
-3 -19 -9 -17 -13 3 -11 -41 -51 -49 -44 -4 4 -4 -1 -1 -10 3 -10 3 -17 -1
-16 -12 4 -52 -36 -52 -52 0 -12 -2 -12 -9 -1 -6 9 -11 10 -15 2 -4 -6 -5 -11
-2 -11 3 0 -2 -8 -11 -18 -10 -11 -21 -17 -26 -15 -4 3 -6 1 -5 -4 2 -4 -15
-26 -37 -48 -22 -22 -39 -43 -38 -47 2 -4 -3 -7 -10 -5 -6 1 -11 -6 -11 -15 1
-10 -2 -15 -7 -12 -12 7 -131 -110 -122 -119 6 -7 -12 -11 -30 -8 -5 1 -6 -3
-2 -9 3 -5 -5 -15 -19 -22 -14 -6 -26 -17 -26 -23 0 -7 -8 -19 -17 -26 -14
-12 -16 -12 -8 0 5 10 4 12 -4 7 -6 -4 -10 -15 -9 -23 2 -9 -4 -18 -12 -20
-13 -4 -13 -3 0 6 10 7 11 11 3 11 -12 0 -36 -34 -29 -41 2 -2 -3 -11 -12 -19
-14 -13 -15 -12 -9 3 4 11 3 16 -3 12 -6 -3 -10 -10 -10 -16 0 -14 -37 -48
-45 -41 -4 4 -5 2 -4 -3 1 -6 -24 -36 -56 -69 -31 -32 -54 -53 -50 -46 5 9 4
11 -3 6 -7 -4 -12 -14 -12 -21 0 -8 -11 -22 -25 -31 -14 -9 -22 -21 -18 -28 3
-6 3 -8 -1 -4 -8 7 -83 -63 -105 -98 -11 -16 -12 -17 -7 -1 3 11 2 15 -4 12
-6 -3 -10 -12 -10 -20 0 -7 -9 -17 -20 -20 -11 -3 -20 -10 -20 -14 0 -15 -48
-60 -56 -53 -4 4 -4 -2 0 -13 4 -11 4 -17 1 -13 -7 7 -65 -50 -65 -64 0 -6 -3
-8 -7 -5 -4 4 -24 -12 -46 -35 -22 -24 -44 -43 -48 -43 -4 0 -11 -4 -16 -9 -5
-5 -3 -6 5 -2 6 4 12 2 12 -3 0 -10 -14 -15 -33 -12 -5 1 -6 -3 -2 -9 3 -5 -1
-13 -9 -16 -9 -3 -16 -13 -16 -22 0 -8 -3 -12 -7 -9 -3 4 -27 -15 -53 -41 -25
-26 -60 -58 -76 -70 -26 -21 -27 -22 -4 -12 22 9 22 9 6 -2 -37 -25 -106 -96
-106 -110 0 -10 -3 -9 -10 2 -9 14 -11 13 -14 -10 0 -5 -11 -17 -24 -25 -12
-9 -20 -21 -17 -26 4 -5 -2 -6 -12 -2 -10 3 -15 3 -12 -1 4 -4 -15 -30 -42
-57 -27 -27 -49 -55 -49 -62 0 -7 -4 -6 -10 3 -7 11 -10 11 -10 2 0 -17 -116
-133 -125 -124 -3 3 -3 -2 1 -12 5 -12 4 -17 -3 -13 -13 8 -95 -78 -85 -88 4
-5 -1 -5 -10 -2 -11 4 -17 2 -15 -6 1 -7 -4 -11 -11 -9 -8 1 -11 -2 -7 -8 3
-5 -1 -13 -10 -16 -9 -4 -14 -13 -11 -21 4 -9 0 -13 -12 -11 -9 2 -16 -2 -15
-9 2 -7 -3 -10 -11 -7 -8 3 -17 0 -22 -7 -5 -8 -3 -10 7 -4 8 5 -19 -23 -58
-61 -40 -38 -73 -75 -73 -82 0 -6 -6 -12 -13 -12 -7 0 -24 -13 -39 -30 -14
-16 -29 -26 -33 -22 -5 4 -5 2 -2 -4 4 -7 -5 -19 -18 -28 -14 -9 -23 -21 -20
-25 2 -5 -5 -11 -16 -14 -13 -4 -18 -10 -13 -18 4 -7 3 -10 -4 -5 -6 3 -17 -3
-25 -14 -7 -11 -17 -17 -22 -12 -4 4 -5 -1 -2 -11 4 -10 3 -16 -3 -12 -5 3
-14 -4 -20 -15 -6 -11 -16 -17 -22 -14 -7 5 -9 2 -5 -9 4 -12 2 -14 -11 -10
-9 3 -14 3 -10 -1 7 -8 -21 -40 -43 -49 -11 -4 -11 -6 1 -6 8 -1 0 -10 -18
-21 -18 -11 -30 -25 -27 -30 3 -6 -1 -10 -9 -10 -9 0 -16 -4 -16 -10 0 -5 -6
-10 -14 -10 -8 0 -18 -5 -22 -12 -5 -7 -2 -8 7 -3 8 4 -1 -6 -20 -24 -19 -17
-39 -31 -45 -31 -6 0 -5 -4 3 -9 11 -7 9 -10 -7 -15 -12 -4 -31 -20 -43 -37
-11 -16 -24 -27 -29 -24 -5 3 -12 0 -16 -6 -4 -8 -3 -9 4 -5 7 4 12 3 12 -3 0
-5 -8 -12 -19 -16 -22 -7 -82 -71 -74 -79 4 -3 -1 -6 -9 -6 -9 0 -19 -7 -22
-16 -3 -8 -11 -12 -16 -9 -6 4 -10 3 -9 -2 3 -19 -2 -33 -12 -33 -5 0 -7 6 -3
13 4 7 3 9 -2 4 -5 -5 -9 -12 -9 -16 0 -12 -74 -81 -86 -81 -7 0 -10 -3 -6 -6
7 -8 -17 -34 -32 -34 -5 0 -13 -4 -16 -10 -4 -6 1 -7 12 -4 10 3 4 -3 -13 -14
-18 -11 -38 -30 -46 -41 -8 -12 -18 -18 -21 -14 -4 3 -7 0 -7 -7 0 -15 -71
-86 -82 -83 -4 2 -8 -2 -8 -7 0 -6 -11 -20 -25 -32 -13 -11 -22 -25 -19 -29 3
-5 -3 -6 -12 -2 -11 4 -15 3 -10 -5 4 -6 -5 -17 -21 -26 -15 -8 -24 -15 -19
-16 4 0 -7 -14 -25 -32 -19 -18 -38 -31 -44 -29 -5 1 -7 0 -3 -4 4 -4 -4 -17
-18 -30 -13 -12 -24 -28 -24 -35 0 -7 -3 -11 -6 -7 -3 3 -20 -7 -38 -23 -17
-17 -35 -30 -39 -30 -5 0 -5 -5 -2 -10 3 -6 -1 -13 -9 -16 -9 -3 -13 -10 -10
-15 3 -5 -2 -9 -11 -9 -9 0 -14 -4 -11 -9 3 -5 -4 -11 -15 -14 -12 -3 -18 -10
-14 -17 4 -6 1 -9 -7 -8 -7 2 -12 -3 -10 -11 2 -9 -3 -11 -15 -7 -9 4 -15 4
-11 1 9 -9 -23 -45 -34 -39 -5 3 -8 2 -7 -3 3 -18 -1 -36 -8 -30 -3 4 -21 -8
-39 -27 -18 -19 -36 -31 -40 -27 -4 3 -4 1 0 -6 4 -7 -4 -18 -21 -27 -15 -8
-24 -15 -19 -16 4 0 -7 -14 -25 -32 -19 -18 -38 -31 -43 -30 -5 2 -6 -4 -3
-13 4 -8 3 -15 -1 -15 -4 0 -22 -14 -41 -30 -18 -17 -38 -30 -44 -30 -6 0 -7
-3 -4 -6 7 -8 -43 -54 -58 -54 -5 0 -3 -5 5 -10 12 -8 10 -10 -9 -10 -13 0
-22 -3 -18 -6 7 -7 -61 -74 -74 -74 -5 0 -8 -3 -7 -7 2 -5 -15 -26 -37 -48
-22 -22 -38 -44 -37 -50 2 -5 0 -7 -4 -2 -9 9 -64 -42 -64 -60 0 -7 -7 -13
-15 -13 -8 0 -15 -5 -15 -11 0 -5 -6 -7 -12 -3 -8 5 -7 0 2 -11 9 -11 10 -16
2 -11 -13 8 -136 -107 -125 -118 4 -3 -1 -6 -9 -6 -9 0 -19 -7 -22 -16 -3 -8
-11 -12 -16 -9 -6 4 -9 1 -8 -7 2 -7 -2 -12 -9 -11 -8 2 -10 -4 -6 -15 3 -9 3
-14 -1 -10 -5 4 -24 -10 -44 -30 -21 -20 -41 -35 -47 -34 -5 2 -7 1 -3 -3 7
-8 -54 -74 -64 -69 -4 2 -9 -5 -13 -16 -4 -11 -10 -18 -15 -15 -5 3 -11 -4
-15 -15 -4 -11 -9 -18 -13 -16 -4 2 -13 -2 -20 -10 -10 -11 -10 -14 0 -15 7 0
3 -4 -9 -9 -13 -5 -23 -14 -23 -20 0 -6 -4 -8 -10 -5 -9 6 -15 -8 -11 -29 1
-5 -5 -6 -13 -3 -9 4 -15 1 -13 -6 1 -7 -4 -11 -11 -9 -8 1 -11 -2 -8 -7 3 -5
-9 -19 -27 -31 -17 -12 -24 -19 -14 -16 11 3 16 2 12 -4 -3 -6 -11 -10 -17
-10 -6 0 -36 -26 -67 -57 -30 -32 -58 -57 -61 -56 -3 0 -16 -14 -30 -33 -14
-18 -31 -34 -38 -34 -6 0 -11 -4 -10 -9 4 -12 -49 -60 -58 -52 -4 3 -4 -2 -1
-12 4 -11 3 -16 -3 -12 -6 3 -10 -2 -10 -12 0 -15 -2 -16 -10 -3 -6 9 -10 10
-10 3 0 -7 -16 -28 -36 -47 -22 -21 -33 -40 -28 -47 4 -8 3 -9 -4 -5 -7 4 -20
2 -29 -3 -10 -6 -14 -11 -9 -11 4 0 -14 -21 -40 -46 -27 -25 -48 -51 -46 -56
1 -5 -2 -7 -8 -3 -5 3 -10 1 -10 -4 0 -6 -7 -11 -15 -11 -8 0 -15 -5 -15 -11
0 -5 6 -7 13 -3 7 4 9 3 4 -2 -5 -5 -14 -9 -20 -9 -7 -1 -11 -6 -9 -13 1 -7
-2 -11 -6 -10 -12 4 -72 -54 -66 -64 3 -4 -3 -5 -12 -1 -12 4 -15 3 -10 -5 4
-7 2 -12 -4 -12 -6 0 -8 -5 -5 -10 4 -6 3 -10 -2 -9 -18 3 -33 -1 -31 -10 2
-4 -31 -41 -72 -82 -41 -40 -74 -77 -72 -82 2 -5 -4 -7 -13 -3 -9 3 -15 2 -13
-2 2 -4 -28 -38 -66 -77 -39 -38 -66 -64 -62 -56 6 10 5 12 -3 7 -9 -6 -9 -11
-1 -21 10 -11 8 -13 -9 -10 -12 2 -19 0 -16 -6 4 -5 -1 -12 -9 -15 -9 -3 -16
-13 -16 -22 0 -8 -3 -12 -7 -9 -7 8 -219 -203 -215 -215 1 -4 -3 -8 -9 -8 -7
0 -23 -12 -37 -27 -14 -16 -27 -27 -29 -25 -2 1 -6 2 -10 2 -5 0 -1 -5 7 -10
11 -7 12 -10 2 -10 -19 0 -72 -52 -65 -63 3 -6 2 -7 -4 -4 -5 3 -15 -3 -23
-13 -8 -10 -18 -16 -24 -13 -5 4 -7 -1 -3 -10 3 -9 2 -16 -2 -14 -5 1 -22 -15
-39 -36 -19 -24 -32 -33 -35 -25 -3 8 -6 6 -6 -4 -1 -10 -5 -18 -11 -18 -5 0
-16 -12 -24 -27 -8 -16 -15 -25 -16 -21 0 13 -80 -69 -80 -81 0 -7 -5 -9 -12
-5 -8 5 -9 2 -4 -11 6 -16 4 -16 -11 -4 -9 8 -14 9 -10 3 4 -7 0 -15 -9 -18
-8 -3 -12 -11 -8 -17 4 -7 3 -9 -3 -6 -6 4 -22 -7 -37 -23 -14 -17 -31 -30
-37 -30 -5 0 -7 -5 -4 -10 3 -6 -1 -13 -9 -16 -9 -3 -13 -10 -10 -15 3 -5 -1
-6 -9 -3 -8 3 -20 -3 -28 -13 -13 -16 -12 -17 4 -4 9 7 17 11 17 8 0 -4 -17
-18 -37 -32 -21 -14 -31 -25 -23 -25 13 0 13 -2 0 -9 -8 -6 -18 -7 -22 -5 -4
3 -5 -3 -1 -12 4 -11 2 -15 -4 -11 -6 4 -26 -10 -44 -31 -18 -20 -36 -36 -40
-35 -4 2 -10 -6 -14 -16 -3 -10 -15 -23 -28 -30 -13 -7 -14 -9 -4 -6 10 3 15
1 12 -5 -3 -6 -13 -10 -20 -10 -8 0 -21 -12 -29 -27 -9 -16 -15 -21 -16 -13 0
13 -2 13 -9 0 -6 -8 -7 -18 -4 -24 3 -5 1 -6 -4 -3 -6 4 -18 -5 -27 -18 -10
-15 -22 -23 -28 -19 -8 5 -9 1 -4 -12 4 -10 4 -16 1 -13 -3 4 -28 -16 -55 -42
-28 -27 -55 -49 -61 -49 -5 0 -7 -4 -4 -10 3 -5 1 -10 -5 -10 -6 0 -8 -5 -4
-12 5 -9 2 -8 -9 1 -15 12 -17 12 -11 -3 4 -11 1 -16 -12 -16 -9 0 -14 -3 -11
-7 9 -9 -43 -63 -60 -63 -7 0 -13 -6 -13 -14 0 -8 -14 -24 -31 -36 -19 -14
-28 -28 -24 -38 4 -12 3 -13 -10 -2 -13 11 -14 10 -9 -4 4 -11 2 -16 -7 -14
-8 2 -13 -3 -11 -10 1 -6 -4 -11 -10 -10 -7 2 -12 -5 -12 -14 1 -10 -4 -14
-12 -11 -8 3 -14 0 -14 -7 0 -6 -4 -9 -9 -5 -6 3 -8 -4 -6 -16 4 -18 2 -19
-12 -7 -12 9 -15 9 -9 1 4 -8 2 -13 -4 -13 -6 0 -8 -5 -4 -12 5 -8 2 -9 -9 -5
-9 3 -19 1 -23 -5 -5 -7 -2 -8 7 -3 8 4 -10 -15 -40 -43 -33 -32 -50 -55 -45
-63 4 -8 3 -10 -4 -5 -7 4 -12 2 -12 -3 0 -6 6 -11 13 -11 8 0 7 -4 -3 -10
-13 -8 -12 -10 3 -10 9 0 17 -7 17 -16 0 -8 4 -13 9 -10 5 3 11 -3 14 -14 3
-11 13 -20 22 -20 12 0 15 -5 11 -17 -4 -10 -4 -14 0 -10 4 4 13 -1 21 -11 12
-16 13 -16 8 3 -3 11 1 6 10 -12 8 -17 20 -35 27 -39 8 -5 8 -1 -2 12 -14 18
-14 18 3 5 9 -7 17 -20 17 -28 0 -8 5 -11 12 -7 7 5 9 2 5 -9 -4 -11 -2 -14 7
-11 8 3 17 0 22 -7 5 -8 3 -10 -6 -4 -9 6 -11 4 -6 -4 5 -7 14 -10 22 -7 8 3
13 2 12 -2 -4 -14 23 -52 38 -52 8 0 12 -4 9 -10 -3 -5 -1 -10 5 -10 6 0 21
-10 33 -21 12 -12 15 -19 7 -15 -8 4 -6 0 4 -8 11 -9 24 -16 30 -16 5 0 6 -3
3 -7 -4 -3 5 -15 20 -25 17 -10 22 -18 13 -18 -9 0 -5 -7 11 -18 14 -9 32 -23
40 -30 8 -6 23 -20 34 -30 12 -9 14 -12 5 -7 -13 9 -13 8 -1 -7 7 -10 19 -18
26 -18 7 0 15 -9 18 -20 3 -13 11 -18 21 -14 11 4 14 1 11 -15 -2 -14 1 -18
11 -14 9 3 14 -1 14 -12 0 -10 5 -13 12 -9 7 5 9 2 5 -9 -4 -11 -2 -14 9 -10
8 3 14 -1 14 -9 0 -16 40 -57 41 -42 0 5 4 -1 9 -14 5 -12 17 -26 27 -29 19
-8 63 -48 63 -58 0 -4 6 -13 14 -21 11 -11 16 -11 20 -1 4 6 4 2 2 -10 -3 -15
0 -20 10 -16 9 3 14 -1 14 -12 0 -9 5 -13 10 -10 6 3 10 -2 10 -11 0 -10 3
-15 6 -11 8 7 54 -38 54 -53 0 -6 5 -8 10 -5 6 3 10 0 10 -8 0 -8 8 -21 18
-28 16 -13 16 -13 2 6 -14 19 -14 19 3 6 9 -7 17 -20 17 -27 0 -8 11 -19 25
-24 14 -5 25 -12 25 -15 0 -4 -6 -3 -12 1 -10 6 -9 3 0 -8 8 -9 20 -14 27 -11
10 3 13 -1 10 -16 -2 -14 1 -18 11 -14 9 3 14 -1 14 -12 0 -9 5 -13 10 -10 6
3 10 -1 10 -10 0 -9 5 -13 10 -10 9 6 14 -8 11 -28 0 -4 3 -7 7 -7 5 0 22 -12
39 -27 18 -16 41 -34 52 -42 11 -8 18 -18 15 -23 -3 -4 2 -8 10 -8 15 0 21
-12 17 -33 -1 -4 7 -7 16 -5 12 2 18 -3 17 -14 -1 -11 5 -15 18 -13 10 2 16 0
13 -5 -7 -11 24 -42 36 -34 5 3 9 2 8 -3 -4 -21 2 -33 16 -33 8 0 15 -7 15
-16 0 -9 9 -18 21 -21 11 -3 18 -11 15 -19 -3 -8 0 -11 8 -8 7 3 19 -3 27 -13
13 -17 13 -17 -6 -3 -19 14 -19 14 -6 -3 7 -9 18 -17 23 -17 5 0 16 -6 24 -14
11 -11 11 -16 1 -19 -6 -3 -1 -6 12 -6 16 -1 21 -5 18 -15 -4 -10 -1 -13 9 -9
9 3 14 -1 14 -12 0 -9 9 -19 20 -22 12 -3 20 -14 20 -27 0 -12 3 -16 8 -10 4
7 19 -1 42 -24 29 -30 30 -32 5 -11 l-30 24 24 -28 c14 -15 30 -27 38 -27 7 0
13 -7 13 -16 0 -9 5 -12 12 -8 7 5 9 2 5 -9 -4 -11 -2 -14 9 -10 13 5 19 -8
15 -30 -1 -5 8 -5 20 -2 13 5 19 3 15 -3 -3 -5 2 -18 12 -29 9 -10 13 -12 7
-3 -9 13 -8 13 8 1 10 -8 16 -20 13 -28 -3 -8 -2 -11 3 -8 5 3 12 1 16 -5 4
-6 11 -8 16 -5 5 3 6 -1 3 -9 -6 -15 6 -21 30 -17 5 1 6 -5 3 -13 -5 -14 18
-31 36 -27 5 1 6 -2 3 -7 -6 -11 21 -52 35 -52 6 0 17 -6 25 -14 11 -11 11
-16 1 -19 -7 -3 -5 -6 5 -6 22 -1 68 -40 68 -58 0 -12 12 -17 32 -14 4 0 5 -6
2 -14 -6 -14 6 -20 30 -16 5 1 6 -5 3 -13 -5 -14 18 -31 36 -27 5 1 6 -2 3 -7
-3 -5 2 -18 10 -28 9 -10 12 -13 8 -5 -5 10 -3 12 5 7 7 -5 10 -14 7 -22 -3
-8 0 -11 10 -7 8 3 14 -1 14 -10 0 -8 8 -21 18 -28 16 -13 16 -13 2 6 -14 19
-14 19 3 6 9 -7 17 -20 17 -28 0 -8 5 -11 10 -8 6 3 10 -1 10 -10 0 -8 8 -19
18 -22 9 -4 25 -16 35 -28 10 -11 15 -14 11 -6 -5 10 -3 12 7 5 19 -12 63 -13
71 0 4 6 11 6 20 -1 14 -11 100 -14 93 -3 -2 4 2 7 10 7 8 0 12 -4 9 -8 -5 -9
47 -6 63 4 6 4 14 3 18 -3 3 -5 16 -10 28 -10 18 0 19 2 7 10 -8 5 -10 10 -4
10 6 0 14 -3 18 -7 3 -4 16 -8 27 -10 14 -2 18 1 13 9 -6 10 -4 10 7 2 16 -12
29 -12 47 -1 6 5 18 5 25 0 18 -12 91 -11 99 1 5 7 8 6 8 -3 0 -11 3 -11 17 0
10 8 14 9 10 2 -5 -8 0 -11 13 -10 11 1 20 6 20 12 0 5 4 4 9 -4 8 -13 12 -13
27 0 10 8 15 9 11 3 -4 -7 7 -11 31 -12 27 -1 33 1 22 8 -8 5 -10 10 -4 10 6
0 14 -3 18 -7 12 -13 48 -14 40 -1 -5 7 -3 8 7 2 20 -12 38 -14 45 -3 3 6 11
5 20 -2 11 -9 14 -8 14 2 0 11 2 11 9 0 8 -13 12 -13 27 0 11 9 15 9 10 1 -4
-7 -1 -12 9 -12 10 0 13 5 9 12 -5 8 -3 8 7 2 20 -13 92 -12 101 0 5 7 8 6 8
-3 0 -11 3 -11 17 0 9 8 14 9 10 3 -4 -7 7 -11 31 -12 27 -1 33 1 22 8 -9 6
-10 10 -3 10 6 0 15 -5 18 -10 5 -8 12 -7 23 2 10 8 13 9 9 1 -8 -13 39 -13
60 0 6 4 14 3 18 -3 3 -5 16 -10 28 -10 18 0 19 2 7 10 -8 5 -10 10 -4 10 6 0
14 -3 18 -7 3 -4 16 -8 27 -10 14 -2 18 1 13 9 -6 10 -4 10 7 2 16 -12 29 -12
47 -1 6 5 18 5 25 0 18 -12 91 -11 99 1 5 7 8 6 8 -3 0 -11 3 -11 17 0 10 8
14 9 10 2 -5 -8 0 -11 13 -10 11 1 20 6 20 12 0 5 4 4 9 -4 8 -13 12 -13 27 0
10 8 15 9 11 3 -4 -7 7 -11 31 -12 27 -1 33 1 22 8 -8 5 -10 10 -4 10 6 0 14
-3 18 -7 12 -13 48 -14 40 -1 -5 7 -3 8 7 2 20 -12 38 -14 45 -3 3 6 11 5 20
-2 11 -9 14 -8 14 2 0 11 2 11 9 0 8 -13 12 -13 27 0 11 9 15 9 10 1 -4 -7 -1
-12 9 -12 10 0 13 5 9 12 -5 8 -3 8 7 2 20 -13 92 -12 101 0 5 7 8 6 8 -3 0
-11 3 -11 17 0 11 10 14 10 9 2 -4 -8 -1 -13 9 -13 10 0 13 5 9 12 -5 8 -3 8
7 2 20 -13 99 -13 99 0 0 7 3 8 8 1 9 -14 85 -15 94 -1 6 8 8 8 8 0 0 -6 16
-11 35 -12 24 -1 34 2 29 10 -5 7 -3 8 7 2 23 -14 51 -16 43 -2 -5 7 -3 8 7 2
20 -12 38 -14 45 -3 3 6 11 5 20 -2 11 -9 14 -8 14 2 0 11 2 11 9 0 8 -13 12
-13 27 0 11 9 15 9 10 2 -4 -8 -1 -13 9 -13 10 0 13 5 9 12 -5 8 -3 8 7 2 20
-13 92 -12 101 0 5 7 8 6 8 -3 0 -11 3 -11 17 0 9 8 14 9 10 3 -4 -7 7 -11 31
-12 27 -1 33 1 22 8 -9 6 -10 10 -3 10 6 0 15 -5 18 -10 5 -8 12 -7 23 2 10 8
13 9 9 1 -8 -13 39 -13 60 0 6 4 14 3 18 -3 3 -5 16 -10 28 -10 18 0 19 2 7
10 -8 5 -10 10 -4 10 6 0 14 -3 18 -7 3 -4 16 -8 27 -10 14 -2 18 1 13 9 -6
10 -4 10 7 2 16 -12 29 -12 47 -1 6 5 18 5 25 0 18 -12 91 -11 99 1 5 7 8 6 8
-3 0 -11 3 -11 17 0 10 8 14 9 10 2 -5 -8 0 -11 13 -10 11 1 20 6 20 12 0 5 4
4 9 -4 8 -13 12 -13 27 0 10 8 15 9 11 3 -4 -7 7 -11 31 -12 27 -1 33 1 22 8
-8 5 -10 10 -4 10 6 0 14 -3 18 -7 12 -13 48 -14 40 -1 -5 7 -3 8 7 2 20 -12
38 -14 45 -3 3 6 11 5 20 -2 11 -9 14 -8 14 2 0 11 2 11 9 0 8 -13 12 -13 27
0 11 9 15 9 10 2 -4 -8 -1 -13 9 -13 10 0 13 5 9 12 -5 8 -3 8 7 2 20 -13 92
-12 101 0 5 7 8 6 8 -3 0 -11 3 -11 17 0 9 8 14 9 10 3 -4 -7 7 -11 31 -12 27
-1 33 1 22 8 -9 6 -10 10 -3 10 6 0 15 -5 18 -10 5 -8 12 -7 23 2 10 8 13 9 9
1 -8 -13 39 -13 60 0 6 4 14 3 18 -3 3 -5 16 -10 28 -10 18 0 19 2 7 10 -8 5
-10 10 -4 10 6 0 14 -3 18 -7 12 -13 48 -14 40 -1 -5 7 -3 8 7 2 19 -12 33
-12 41 1 5 6 8 5 8 -4 0 -11 3 -11 17 0 13 11 15 11 9 1 -10 -16 25 -13 36 3
5 6 8 5 8 -4 0 -11 3 -11 15 -1 12 10 15 10 15 0 0 -9 4 -9 17 1 9 8 14 9 10
3 -3 -6 1 -11 9 -11 8 0 13 6 10 13 -3 8 0 11 11 7 8 -3 19 0 23 7 5 8 9 9 14
1 4 -6 2 -11 -4 -11 -6 0 -8 -5 -5 -10 4 -6 15 -1 27 12 17 20 19 21 13 4 -5
-19 -5 -19 12 -4 11 10 34 16 59 15 24 -1 50 5 60 13 16 14 17 13 11 -5 -7
-19 -6 -19 7 -1 8 10 19 15 24 12 6 -3 13 1 16 10 4 10 13 14 22 10 8 -3 25
-1 36 5 15 8 18 8 14 0 -9 -14 26 -2 36 13 3 5 19 11 35 14 15 2 33 8 38 14 7
8 6 9 -5 3 -9 -5 -12 -4 -7 1 5 5 14 9 20 10 7 0 20 2 30 2 10 1 16 6 13 11
-3 5 5 11 19 13 16 3 22 1 19 -6 -3 -6 1 -3 9 6 8 10 17 15 20 11 4 -3 7 -1 7
6 0 8 7 11 15 7 9 -3 19 3 26 16 9 16 13 18 20 7 6 -11 9 -10 15 4 3 9 15 17
25 17 11 0 22 7 26 16 4 11 8 12 13 4 5 -7 11 -6 21 6 12 15 12 17 0 9 -9 -5
-12 -4 -8 3 4 5 15 9 24 8 10 -2 26 7 35 20 10 12 26 21 36 19 9 -1 24 4 32
11 8 7 25 22 37 33 12 10 24 17 27 14 3 -3 8 2 12 11 3 9 13 16 21 16 8 0 12
4 8 9 -3 6 4 8 15 6 11 -2 18 0 16 4 -7 10 30 41 40 33 4 -4 4 -2 1 4 -4 7 3
19 16 27 39 26 67 54 60 61 -6 5 11 10 28 8 4 -1 10 10 13 24 4 14 10 23 14
21 4 -2 15 4 25 15 9 10 14 18 10 18 -4 0 8 12 25 26 18 15 32 33 32 41 0 8 5
11 10 8 6 -3 10 3 10 15 0 12 5 18 10 15 6 -3 10 1 10 9 0 9 5 16 11 16 6 0 8
7 5 16 -3 8 -2 13 3 10 5 -3 15 2 22 11 12 14 12 16 -1 8 -8 -4 -3 3 13 18 15
14 27 33 27 40 0 8 7 17 15 21 8 3 15 15 15 26 0 11 7 23 15 26 8 4 15 12 15
20 0 8 5 14 11 14 6 0 9 6 6 14 -3 8 1 17 9 20 8 3 13 11 12 18 -2 7 2 12 8
11 6 -1 11 4 11 12 0 8 -4 12 -9 9 -5 -4 -4 3 4 15 7 12 16 21 21 21 4 0 5 5
2 10 -3 6 -1 10 6 10 8 0 7 5 -2 17 -10 11 -10 14 -1 9 6 -4 12 -3 12 3 0 6 8
8 18 5 14 -5 15 -4 2 5 -13 10 -13 12 0 21 8 5 11 10 6 10 -5 0 -3 7 4 15 10
12 10 18 0 30 -11 13 -10 14 4 9 12 -5 15 -2 9 12 -4 12 -3 15 5 10 8 -5 10
-2 6 9 -4 8 -1 21 5 29 6 7 8 16 4 19 -3 4 0 7 7 7 7 0 10 3 7 7 -4 3 -1 13 6
21 10 13 9 15 -3 8 -13 -6 -13 -6 0 6 9 7 15 23 14 35 -1 13 4 23 10 23 6 0 4
5 -4 10 -12 8 -12 10 -1 10 8 0 11 7 8 20 -3 11 -2 18 2 16 4 -3 13 5 21 17
12 19 11 20 -2 10 -12 -11 -14 -9 -13 8 1 11 7 24 14 29 11 6 11 9 0 13 -10 4
-10 6 -1 6 6 1 12 8 12 17 0 9 -5 12 -12 8 -10 -6 -10 -5 -1 8 7 8 10 18 6 21
-3 4 -1 7 7 7 10 0 10 4 -1 17 -10 11 -10 14 -1 9 9 -5 12 2 12 28 0 19 5 38
10 41 6 3 10 15 10 26 0 10 -4 19 -10 19 -5 0 -10 5 -10 11 0 5 5 7 10 4 6 -3
10 -1 10 4 0 6 -6 11 -12 11 -10 0 -10 2 -1 8 10 6 12 957 12 4321 0 3759 -2
4315 -14 4328 -9 9 -15 10 -15 3z m-310 -314 c0 -3 -4 -8 -10 -11 -5 -3 -10
-1 -10 4 0 6 5 11 10 11 6 0 10 -2 10 -4z m-870 -869 c0 -2 -10 -12 -22 -23
l-23 -19 19 23 c18 21 26 27 26 19z m-1160 -1161 c0 -2 -8 -10 -17 -17 -16
-13 -17 -12 -4 4 13 16 21 21 21 13z m2357 -6371 c0 -8 -4 -12 -9 -9 -5 3 -6
10 -3 15 9 13 12 11 12 -6z"/>
<path d="M3332 9002 c-7 -9 -10 -11 -6 -4 12 26 -36 -7 -54 -37 -10 -16 -23
-26 -31 -23 -8 3 -11 0 -7 -6 3 -5 -5 -17 -19 -26 -14 -9 -25 -23 -25 -31 0
-8 -4 -14 -8 -12 -10 3 -162 -149 -162 -162 0 -6 -4 -11 -10 -11 -5 0 -49 -39
-96 -87 -48 -49 -91 -87 -96 -85 -5 1 -7 -1 -4 -6 3 -5 -20 -31 -49 -58 -30
-27 -55 -55 -55 -61 0 -7 -3 -12 -7 -11 -16 5 -96 -80 -88 -92 6 -9 4 -11 -4
-5 -13 8 -74 -49 -63 -59 3 -3 -2 -6 -11 -6 -9 0 -23 -12 -31 -27 -8 -16 -17
-27 -20 -25 -9 3 -45 -36 -38 -42 3 -3 -2 -6 -12 -6 -11 0 -14 -4 -10 -12 5
-8 2 -9 -10 -5 -9 4 -15 3 -12 -2 3 -5 -12 -23 -34 -41 -22 -18 -40 -39 -40
-46 0 -8 -3 -13 -8 -11 -9 3 -52 -40 -52 -52 0 -5 -9 -11 -20 -14 -11 -3 -20
-13 -20 -22 0 -9 -4 -14 -9 -11 -5 3 -16 -6 -25 -19 -10 -14 -22 -23 -28 -19
-6 4 -8 3 -5 -3 8 -13 -17 -36 -27 -25 -4 4 -6 2 -4 -3 1 -6 -16 -30 -39 -54
-24 -23 -43 -47 -43 -52 0 -5 -6 -8 -12 -7 -7 2 -12 -3 -10 -9 1 -7 -3 -13 -9
-13 -6 0 -33 -24 -62 -52 -28 -29 -54 -52 -59 -51 -4 2 -4 -5 -1 -14 4 -11 3
-14 -5 -9 -7 4 -12 1 -12 -9 0 -9 -3 -14 -7 -12 -9 6 -34 -19 -27 -26 2 -2 -2
-10 -11 -17 -13 -11 -15 -10 -10 6 4 10 -1 6 -10 -9 -9 -16 -21 -25 -27 -21
-8 5 -9 2 -5 -9 3 -10 2 -17 -3 -17 -5 0 -15 -6 -22 -13 -7 -7 -22 -19 -33
-26 -15 -9 -16 -11 -2 -7 27 8 21 1 -23 -28 -23 -15 -46 -38 -52 -51 -6 -14
-17 -25 -24 -25 -7 0 -16 -10 -19 -21 -6 -17 -9 -19 -16 -8 -7 11 -9 10 -9 -4
0 -10 -7 -20 -15 -23 -8 -3 -17 -14 -20 -25 -4 -10 -9 -18 -13 -17 -10 3 -202
-189 -202 -202 0 -5 -6 -9 -12 -8 -7 2 -12 -3 -10 -9 1 -7 -3 -13 -9 -13 -13
0 -99 -89 -99 -102 0 -5 -4 -7 -9 -4 -4 3 -19 -8 -31 -24 -12 -16 -28 -27 -34
-23 -6 3 -8 3 -5 -1 4 -4 -21 -35 -55 -68 -33 -34 -54 -58 -46 -54 9 5 8 2 -2
-7 -10 -8 -15 -17 -11 -20 3 -4 1 -7 -7 -7 -10 0 -10 -4 1 -17 10 -11 10 -14
1 -9 -7 4 -12 1 -12 -9 0 -10 5 -13 13 -9 9 6 9 4 1 -7 -12 -16 -12 -29 0 -48
6 -10 5 -12 -2 -7 -7 4 -12 2 -12 -3 0 -6 6 -11 13 -11 9 0 9 -2 -1 -9 -17
-11 -17 -21 0 -32 10 -7 10 -9 1 -9 -14 0 -13 -26 1 -49 6 -10 5 -12 -2 -7 -7
4 -12 1 -12 -9 0 -10 5 -13 12 -9 7 5 8 3 2 -7 -14 -22 -14 -70 -1 -62 8 4 7
1 -1 -9 -9 -12 -10 -18 -2 -23 6 -4 7 -12 2 -18 -10 -15 -10 -27 2 -46 6 -9 5
-12 -1 -8 -6 4 -10 -4 -10 -18 0 -14 5 -25 11 -25 6 0 4 -5 -4 -10 -13 -9 -13
-10 0 -10 9 0 11 -3 5 -8 -14 -9 -16 -74 -2 -65 6 4 7 1 1 -8 -13 -21 -14 -39
-1 -39 8 0 7 -3 -1 -9 -17 -11 -17 -21 0 -32 8 -5 8 -9 2 -9 -6 0 -11 -11 -11
-25 0 -14 5 -25 11 -25 6 0 4 -5 -4 -10 -13 -9 -13 -10 0 -10 9 0 11 -3 5 -8
-14 -9 -16 -74 -2 -65 6 4 7 1 1 -8 -13 -21 -14 -39 -1 -39 8 0 7 -3 -1 -9
-17 -11 -17 -21 0 -32 8 -5 8 -9 2 -9 -6 0 -11 -11 -11 -25 0 -14 5 -25 11
-25 6 0 4 -5 -4 -10 -13 -9 -13 -10 0 -10 9 0 11 -3 5 -8 -14 -9 -16 -74 -2
-65 6 4 7 1 2 -7 -13 -21 -15 -81 -2 -73 6 4 7 1 1 -8 -12 -20 -14 -38 -3 -45
6 -3 5 -11 -2 -20 -9 -11 -8 -14 2 -14 9 0 10 -3 4 -8 -15 -10 -16 -52 -2 -52
7 0 6 -4 -3 -10 -13 -9 -13 -10 0 -10 9 0 11 -3 5 -8 -14 -9 -16 -74 -2 -65 6
4 7 1 2 -7 -13 -21 -15 -81 -2 -73 6 4 7 1 1 -8 -13 -21 -14 -39 -1 -39 8 0 7
-3 -1 -9 -17 -11 -17 -21 0 -32 8 -5 8 -9 2 -9 -6 0 -11 -11 -11 -25 0 -14 5
-25 11 -25 6 0 4 -5 -4 -10 -13 -9 -13 -10 0 -10 9 0 11 -3 5 -8 -14 -9 -16
-74 -2 -65 6 4 7 1 2 -7 -13 -21 -15 -81 -2 -73 6 4 7 1 1 -8 -13 -21 -14 -39
-1 -39 8 0 7 -3 -1 -9 -17 -11 -17 -21 0 -32 8 -5 8 -9 2 -9 -6 0 -11 -11 -11
-25 0 -14 5 -25 11 -25 6 0 4 -5 -4 -10 -13 -9 -13 -10 0 -10 9 0 11 -3 5 -8
-14 -9 -16 -74 -2 -65 6 4 7 1 1 -8 -13 -21 -14 -39 -1 -39 8 0 7 -3 -1 -9
-17 -11 -17 -21 0 -32 8 -5 8 -9 2 -9 -6 0 -11 -11 -11 -25 0 -14 5 -25 11
-25 6 0 4 -5 -4 -10 -13 -9 -13 -10 0 -10 9 0 11 -3 5 -8 -14 -9 -16 -74 -2
-65 6 4 7 1 1 -8 -13 -21 -14 -39 -1 -39 8 0 7 -3 -1 -9 -17 -11 -17 -21 0
-32 10 -7 10 -9 1 -9 -16 0 -17 -32 -2 -47 6 -6 8 -17 3 -25 -14 -22 -15 -80
-1 -97 9 -12 9 -13 -1 -7 -6 4 -12 2 -12 -3 0 -6 6 -11 13 -11 9 0 9 -2 -1 -9
-17 -11 -17 -21 0 -32 10 -7 10 -9 1 -9 -14 0 -13 -26 1 -49 6 -10 5 -12 -2
-7 -7 4 -12 1 -12 -9 0 -10 5 -14 12 -9 10 6 10 4 1 -7 -17 -17 -17 -43 -1
-33 10 6 10 5 1 -7 -10 -12 -10 -18 0 -29 7 -8 7 -10 1 -7 -7 4 -11 -3 -11
-18 -1 -14 4 -22 10 -18 6 4 7 1 1 -8 -14 -24 -16 -51 -2 -43 10 6 11 4 1 -7
-17 -17 -17 -32 0 -23 9 6 9 5 0 -7 -10 -12 -10 -18 0 -29 7 -8 7 -10 1 -7 -7
4 -11 -3 -11 -18 -1 -16 4 -22 11 -18 6 4 4 -1 -4 -12 -16 -19 -16 -21 3 -44
9 -12 9 -13 0 -7 -7 4 -13 2 -13 -3 0 -6 6 -11 13 -11 9 0 9 -2 -1 -9 -17 -11
-17 -21 0 -32 8 -5 8 -9 2 -9 -6 0 -11 -11 -11 -25 0 -14 5 -25 11 -25 6 0 4
-5 -4 -10 -13 -9 -13 -10 0 -10 9 0 11 -3 5 -8 -14 -9 -16 -74 -2 -65 6 4 7 1
1 -8 -13 -21 -14 -39 -1 -39 8 0 7 -3 -1 -9 -17 -11 -17 -21 0 -32 8 -5 8 -9
2 -9 -6 0 -11 -11 -11 -25 0 -14 5 -25 11 -25 6 0 4 -5 -4 -10 -13 -9 -13 -10
0 -10 9 0 11 -3 5 -8 -14 -9 -16 -74 -2 -65 6 4 7 1 1 -8 -13 -21 -14 -39 -1
-39 8 0 7 -3 -1 -9 -8 -4 -14 -12 -14 -16 0 -4 6 -12 14 -16 10 -7 10 -9 1 -9
-14 0 -13 -26 1 -49 6 -10 5 -12 -2 -7 -7 4 -12 1 -12 -9 0 -10 5 -14 12 -9
10 6 10 4 1 -7 -16 -17 -17 -43 -1 -33 7 5 8 3 2 -7 -14 -24 -16 -51 -2 -43
10 6 11 4 1 -7 -17 -17 -17 -32 -1 -23 10 6 10 4 2 -7 -12 -16 -12 -29 0 -48
6 -10 5 -12 -2 -7 -7 4 -12 1 -12 -9 0 -10 5 -13 12 -9 7 5 8 3 2 -7 -12 -20
-14 -38 -3 -45 6 -3 5 -12 -2 -21 -10 -11 -10 -16 0 -23 11 -6 11 -9 0 -14
-11 -5 -11 -7 -2 -12 10 -4 10 -11 2 -26 -6 -11 -7 -18 -2 -15 5 4 10 0 10 -8
0 -8 -5 -11 -10 -8 -5 3 -7 0 -5 -8 3 -8 11 -13 17 -11 7 1 10 -2 6 -8 -3 -6
-10 -8 -14 -6 -4 3 -8 -1 -8 -9 0 -8 7 -15 16 -16 10 0 12 -2 4 -6 -7 -2 -13
-12 -13 -21 0 -15 2 -15 10 -2 6 10 8 3 3 -23 -3 -21 -2 -37 4 -37 5 0 9 -20
8 -45 -1 -24 1 -43 4 -40 4 2 5 -12 3 -32 -4 -28 -2 -34 9 -27 11 6 10 3 -1
-11 -9 -11 -10 -16 -2 -11 8 5 12 0 12 -14 0 -12 4 -19 9 -16 5 4 7 -4 4 -15
-4 -15 0 -27 13 -37 16 -13 16 -14 2 -9 -23 8 -22 5 2 -43 11 -22 17 -46 13
-56 -4 -11 -2 -15 4 -11 6 4 14 0 17 -9 3 -9 2 -12 -5 -8 -6 3 -1 -12 10 -35
12 -23 18 -41 14 -41 -5 0 -2 -4 5 -9 7 -4 14 -18 15 -29 1 -12 4 -22 8 -22 4
0 12 -14 18 -30 5 -17 16 -30 23 -30 9 0 9 -3 -2 -10 -10 -6 -11 -10 -2 -10 6
0 12 -8 12 -18 0 -10 8 -27 18 -38 29 -32 56 -77 41 -69 -8 3 -4 -2 8 -13 12
-11 19 -22 16 -26 -4 -3 -1 -6 6 -6 7 0 11 -7 8 -15 -4 -8 -1 -17 5 -21 7 -5
8 -2 3 6 -5 9 -4 11 3 6 7 -4 12 -14 12 -22 0 -8 5 -14 10 -14 6 0 10 -7 10
-16 0 -8 4 -12 10 -9 9 6 15 -17 10 -40 -1 -5 1 -7 5 -3 10 9 38 -19 31 -31
-3 -4 4 -17 17 -27 l22 -19 -20 25 -20 25 23 -19 c12 -11 20 -26 18 -33 -3 -7
-1 -13 5 -13 14 0 39 -26 39 -40 0 -6 4 -9 9 -5 5 3 12 -4 16 -15 3 -11 13
-20 21 -20 8 0 14 -3 14 -8 0 -14 51 -62 61 -57 5 4 9 1 9 -4 0 -22 2 -26 16
-34 8 -4 19 -5 26 -1 7 5 9 2 5 -8 -3 -10 3 -24 16 -35 15 -12 19 -13 12 -3
-6 10 -4 9 6 -2 9 -9 19 -15 22 -12 3 3 8 -4 12 -17 6 -17 9 -19 16 -8 7 11 9
11 9 -3 0 -11 5 -15 15 -12 11 4 15 0 15 -16 0 -15 5 -20 18 -18 9 2 28 -8 41
-22 13 -14 20 -18 15 -10 -5 9 1 4 14 -10 19 -21 22 -22 17 -5 -5 14 -2 13 9
-5 8 -14 16 -20 16 -15 0 6 5 3 10 -5 9 -13 10 -13 10 0 1 9 5 6 10 -8 5 -12
16 -23 25 -23 29 -3 33 -4 42 -13 5 -5 3 -6 -4 -2 -7 4 -13 5 -13 2 0 -3 10
-10 21 -17 17 -9 20 -8 13 3 -4 7 3 4 16 -7 13 -11 21 -15 17 -9 -3 6 0 11 8
11 8 0 12 -4 9 -8 -6 -10 31 -31 40 -22 3 3 6 0 6 -7 0 -7 3 -10 7 -7 3 4 13
1 21 -6 13 -10 14 -9 7 3 -8 13 -7 13 9 1 13 -11 14 -16 4 -23 -8 -4 1 -5 20
-2 17 4 32 3 32 -2 0 -5 9 -15 21 -22 17 -11 20 -11 14 0 -6 10 -5 11 6 1 7
-7 24 -13 37 -13 13 0 21 -4 17 -9 -3 -5 0 -13 6 -17 8 -4 9 -3 5 4 -11 18 10
14 28 -4 12 -12 16 -12 16 -2 0 10 2 10 9 -1 5 -7 14 -10 20 -6 7 4 22 0 35
-8 16 -11 27 -12 40 -5 13 7 17 7 12 0 -8 -14 9 -18 76 -17 40 0 54 -3 48 -10
-7 -8 -1 -10 19 -7 16 2 32 -1 36 -8 5 -8 10 -8 21 1 10 8 14 8 14 0 0 -6 7
-11 16 -11 9 0 12 5 8 13 -6 9 -4 9 6 0 19 -18 8695 -19 8706 -1 5 7 3 8 -7 3
-11 -7 -12 -6 -3 6 9 11 4 21 -21 46 -18 17 -36 29 -41 25 -4 -4 -4 -2 -1 4 4
6 -1 20 -9 30 -9 10 -13 13 -9 7 4 -8 1 -11 -9 -7 -8 3 -12 12 -9 20 3 8 -1
14 -11 14 -9 0 -16 5 -16 11 0 5 -4 7 -10 4 -5 -3 -10 -1 -10 6 0 7 -16 28
-36 46 -20 18 -33 33 -28 33 5 0 -3 8 -16 17 -14 10 -29 17 -34 15 -5 -2 -6 5
-2 14 4 12 2 15 -9 10 -8 -3 -14 0 -12 7 1 7 -4 11 -10 9 -7 -1 -13 3 -13 9 0
15 -26 39 -35 31 -4 -4 -6 -2 -5 3 5 22 -1 36 -11 30 -6 -4 -13 2 -16 14 -3
12 -10 21 -15 21 -14 0 -38 27 -31 34 6 6 -13 10 -32 6 -5 -1 -7 1 -3 5 8 8
-42 61 -55 57 -5 -1 -6 2 -2 8 3 5 1 10 -5 10 -6 0 -8 5 -5 10 3 6 0 10 -8 10
-8 0 -17 9 -20 20 -3 13 -10 18 -21 14 -12 -5 -15 -2 -10 10 3 9 1 16 -6 16
-15 0 -41 26 -33 34 4 3 -1 6 -9 6 -9 0 -18 9 -21 20 -3 11 -12 20 -20 20 -9
0 -19 10 -22 21 -6 17 -9 19 -16 8 -7 -12 -9 -11 -10 1 -1 8 -1 18 0 23 0 4
-6 7 -14 7 -8 0 -15 7 -15 16 0 11 -5 14 -17 10 -10 -4 -14 -4 -11 0 4 3 -4
17 -18 31 -13 13 -24 28 -24 33 0 6 -5 10 -11 10 -5 0 -7 -6 -3 -12 4 -8 3
-10 -2 -5 -5 5 -9 13 -9 18 0 5 -4 9 -9 8 -4 0 -19 15 -32 34 -12 19 -30 37
-39 41 -9 3 -13 11 -9 18 5 8 2 9 -12 4 -10 -4 -15 -4 -11 0 4 4 -1 13 -11 21
-9 8 -11 11 -3 7 9 -4 12 -3 7 4 -4 6 -13 9 -20 6 -8 -3 -17 0 -22 7 -4 8 -3
10 4 5 8 -5 10 -2 6 8 -3 9 -9 14 -12 13 -4 -1 -22 14 -41 33 -18 19 -37 34
-42 32 -5 -1 -8 4 -7 10 2 7 -3 12 -10 10 -6 -1 -11 4 -10 10 2 7 -2 12 -9 11
-7 -2 -10 4 -7 12 5 11 2 13 -12 8 -12 -4 -15 -3 -10 5 4 7 3 12 -3 12 -5 0
-12 9 -16 19 -3 10 -15 21 -26 24 -12 3 -18 10 -14 16 6 10 -8 16 -28 12 -5
-1 -6 3 -3 8 6 9 -13 29 -27 29 -5 0 -12 4 -15 8 -4 4 -1 4 6 0 6 -4 12 -2 12
3 0 6 -4 11 -8 11 -5 0 -17 7 -28 16 -10 8 -12 13 -4 9 8 -4 6 0 -5 9 -11 8
-27 21 -35 28 -8 7 -19 12 -24 10 -4 -2 -6 4 -3 12 4 9 -1 17 -14 21 -18 6
-24 17 -20 39 1 5 -6 6 -15 2 -11 -4 -18 0 -21 14 -3 11 -9 18 -13 15 -4 -3
-11 2 -14 11 -3 8 -11 12 -16 9 -6 -4 -9 -3 -8 2 2 4 -18 30 -45 56 -26 27
-47 53 -47 59 0 6 -3 9 -6 5 -8 -7 -34 17 -34 32 0 6 -7 7 -17 4 -11 -4 -14
-3 -9 5 4 7 2 12 -4 12 -6 0 -8 5 -5 10 6 10 -9 15 -30 10 -5 -1 -7 1 -3 5 8
9 -16 35 -31 35 -6 0 -10 6 -9 13 2 6 -2 11 -9 10 -7 -2 -10 4 -7 12 5 11 2
14 -12 9 -11 -4 -16 -4 -12 1 4 4 -3 16 -15 27 -12 11 -16 16 -8 12 10 -5 12
-3 7 5 -5 7 -14 10 -22 7 -8 -3 -13 0 -11 6 1 6 -8 17 -21 23 -12 7 -26 16
-30 20 -4 5 -1 5 6 1 6 -4 12 -2 12 3 0 6 -4 11 -10 11 -11 0 -135 123 -163
160 -10 14 -15 19 -12 13 3 -7 1 -13 -4 -13 -6 0 -11 9 -11 20 0 11 -5 20 -10
20 -6 0 -21 10 -33 21 -12 12 -15 18 -7 14 12 -7 13 -6 2 6 -7 8 -18 14 -25
14 -7 1 -11 6 -9 13 1 7 -5 12 -13 12 -8 0 -15 6 -15 14 0 7 -8 20 -17 27 -16
12 -17 12 -8 -1 6 -9 1 -7 -10 5 -11 11 -31 31 -45 45 l-25 24 25 -19 c22 -18
23 -18 10 -1 -8 10 -25 22 -38 27 -13 5 -20 13 -17 19 3 5 -5 12 -19 16 -14 3
-25 9 -24 13 2 20 -4 31 -17 31 -8 0 -15 6 -15 14 0 8 -5 18 -12 22 -7 4 -8 3
-4 -4 5 -8 2 -10 -8 -6 -9 3 -16 15 -16 25 0 17 -11 24 -33 20 -5 -1 -6 2 -3
7 5 9 -28 42 -42 42 -4 0 -13 9 -20 21 -11 17 -11 20 0 13 10 -6 10 -4 -1 9
-10 13 -17 14 -27 6 -10 -8 -12 -6 -9 11 2 13 2 20 -1 17 -4 -3 -26 15 -51 41
-24 26 -50 45 -56 44 -7 -2 -9 0 -5 3 9 9 -55 75 -71 75 -6 0 -11 5 -11 11 0
5 5 7 12 3 7 -4 8 -3 4 5 -4 6 -11 9 -15 7 -4 -3 -13 4 -21 14 -8 10 -17 17
-22 14 -5 -3 -8 -2 -7 3 3 17 -1 36 -7 30 -7 -6 -74 60 -74 74 0 4 -7 6 -15 3
-11 -5 -13 -2 -9 10 5 12 0 19 -15 23 -11 3 -18 9 -15 14 3 5 0 9 -6 9 -15 0
-41 26 -33 34 4 3 1 6 -6 6 -16 0 -42 26 -34 34 4 3 -1 6 -10 6 -9 0 -17 8
-17 17 0 9 -3 13 -6 10 -4 -3 -15 5 -26 18 -11 14 -25 22 -31 18 -6 -4 -8 0
-4 10 4 11 1 17 -9 17 -9 0 -12 5 -8 12 5 8 2 9 -12 4 -10 -4 -15 -4 -12 0 4
3 -15 28 -43 56 -27 27 -49 54 -49 60 0 5 -8 7 -17 4 -10 -4 -14 -4 -11 0 8 8
-16 34 -31 34 -10 0 -15 14 -12 33 0 4 -5 7 -13 7 -7 0 -16 9 -19 20 -3 13
-10 18 -21 14 -14 -5 -18 0 -15 22 0 3 -13 15 -28 27 -45 35 -95 87 -86 88 4
1 -3 4 -17 8 -15 4 -24 14 -24 24 1 9 -4 17 -12 17 -8 0 -14 5 -14 11 0 5 -5
7 -12 3 -7 -4 -8 -3 -4 5 4 6 0 14 -8 17 -9 3 -14 10 -11 14 3 4 -5 10 -16 13
-12 3 -18 10 -14 16 6 10 -8 16 -28 12 -5 -1 -6 3 -2 8 3 6 -6 18 -20 27 -14
9 -25 23 -25 31 0 8 -4 11 -10 8 -5 -3 -10 1 -10 10 0 12 -5 15 -17 11 -10 -4
-14 -4 -11 0 12 12 -12 46 -28 40 -8 -3 -13 -2 -10 2 2 4 -2 16 -10 27 -8 10
-14 15 -14 11 0 -4 -7 -1 -15 8 -8 8 -15 20 -15 26 0 7 -7 9 -16 6 -12 -4 -15
-2 -10 9 6 16 -26 39 -39 27 -5 -4 -5 -2 -2 4 7 13 -78 95 -88 86 -4 -4 -6 -2
-5 3 6 26 -1 37 -17 31 -10 -4 -14 -4 -11 -1 9 9 -46 65 -63 65 -12 0 -12 2
-1 9 10 6 8 10 -9 14 -13 4 -20 9 -17 13 9 8 -16 34 -32 34 -6 0 -8 4 -5 10 3
6 -1 7 -9 4 -12 -4 -16 0 -16 16 0 11 -5 18 -10 15 -6 -3 -10 1 -10 9 0 8 -5
18 -12 22 -7 4 -8 3 -4 -4 4 -7 3 -12 -3 -12 -6 0 -13 11 -17 25 -3 14 -9 23
-13 20 -4 -2 -14 5 -21 16 -8 10 -20 19 -27 19 -7 0 -12 4 -10 8 1 4 -10 20
-25 34 -15 14 -25 28 -21 31 6 7 -13 11 -32 7 -5 -1 -7 2 -3 5 4 4 -6 20 -22
35 -16 15 -26 30 -23 34 3 3 -1 6 -11 6 -9 0 -14 5 -11 10 3 6 -1 10 -9 10 -9
0 -16 7 -16 15 0 8 -6 14 -12 12 -7 -1 -12 3 -11 8 0 6 -5 16 -13 23 -8 7 -14
10 -14 7 0 -4 -7 0 -15 9 -8 8 -15 20 -15 26 0 6 -4 8 -10 5 -5 -3 -10 1 -10
10 0 8 -8 19 -17 22 -24 9 -43 29 -36 37 4 3 1 6 -6 6 -7 0 -25 13 -41 30 -15
16 -31 26 -35 22 -3 -4 -6 -2 -5 3 4 20 0 36 -8 31 -5 -3 -14 4 -22 14 -8 10
-18 16 -23 13 -6 -3 -7 -1 -3 6 4 6 0 14 -8 17 -9 3 -13 11 -9 17 4 7 0 8 -13
3 -10 -4 -16 -4 -12 -1 8 8 -65 85 -80 85 -11 0 -16 14 -13 33 1 5 -3 6 -9 2
-5 -3 -13 1 -16 9 -3 9 -10 13 -15 10 -5 -3 -9 -2 -8 3 4 23 -2 35 -17 29 -8
-3 -13 -2 -10 3 3 5 -1 12 -10 15 -8 3 -12 10 -9 16 4 6 -1 7 -11 3 -12 -4
-15 -3 -10 6 5 8 0 14 -14 18 -16 4 -18 8 -8 14 7 5 8 9 2 9 -15 0 -54 35 -54
48 0 6 -5 14 -12 18 -7 4 -8 3 -4 -4 5 -8 1 -10 -9 -6 -9 4 -14 13 -11 20 3 8
-1 14 -9 14 -8 0 -15 5 -15 10 0 6 -7 10 -15 10 -8 0 -15 5 -15 11 0 5 5 7 10
4 6 -3 10 -4 10 0 0 3 -11 10 -25 15 -14 5 -25 17 -25 25 0 9 -4 13 -10 10 -5
-3 -10 2 -10 11 0 10 -3 15 -6 11 -8 -8 -34 18 -34 33 0 7 -7 9 -16 6 -11 -4
-15 -2 -11 8 6 15 -22 46 -42 46 -7 0 -9 5 -6 10 3 6 -1 10 -9 10 -9 0 -16 7
-16 16 0 8 -4 12 -10 9 -5 -3 -10 -1 -10 5 0 6 -5 8 -10 5 -6 -4 -9 -1 -8 6 2
7 -8 18 -22 26 -15 7 -19 13 -10 14 9 0 7 4 -7 11 -13 6 -23 18 -23 26 0 9 -6
12 -17 8 -10 -4 -14 -4 -11 0 8 8 -16 34 -32 34 -6 0 -8 5 -5 10 3 6 1 10 -5
10 -6 0 -8 5 -5 10 3 6 2 10 -4 10 -13 0 -166 152 -163 162 1 4 -5 5 -14 1 -9
-3 -14 0 -12 8 2 8 -2 13 -9 12 -7 -2 -10 4 -7 12 5 11 2 13 -12 8 -12 -4 -15
-3 -10 5 4 7 2 12 -3 12 -6 0 -11 8 -11 18 0 14 -2 15 -10 2 -8 -12 -10 -11
-10 7 0 16 -8 25 -25 29 -13 3 -24 9 -23 13 0 3 0 13 -1 21 -1 13 -2 13 -11 0
-9 -15 -11 -14 -14 13 -1 6 -7 11 -14 9 -7 -1 -11 1 -11 5 3 17 -1 36 -7 31
-7 -8 -74 57 -74 72 0 7 -7 10 -16 6 -11 -4 -15 -2 -11 8 4 9 -2 17 -14 21
-10 4 -19 10 -19 14 0 18 -59 73 -71 65 -7 -4 -10 -3 -5 4 3 5 -6 20 -21 32
-16 12 -22 18 -14 14 9 -5 12 -3 7 4 -4 7 -14 12 -22 12 -8 0 -14 7 -14 16 0
8 -3 13 -7 11 -10 -6 -34 19 -26 27 4 3 1 6 -6 6 -17 0 -42 26 -33 35 4 5 -1
5 -11 2 -11 -4 -16 -3 -12 3 3 6 -1 10 -9 10 -10 0 -13 6 -10 15 4 9 0 15 -9
15 -8 0 -17 9 -20 20 -3 11 -11 20 -19 20 -10 0 -9 -3 2 -11 13 -9 13 -10 0
-6 -8 2 -14 12 -14 21 1 9 -3 16 -10 16 -6 0 -17 9 -24 20 -7 12 -17 18 -22
15 -6 -3 -10 -1 -10 5 0 16 -26 40 -35 32 -4 -4 -6 -2 -5 3 5 21 0 36 -10 30
-5 -3 -10 -1 -10 5 0 6 -4 8 -10 5 -5 -3 -10 3 -10 14 0 12 -3 20 -7 20 -19
-3 -33 2 -33 12 0 5 5 7 12 3 7 -4 8 -3 4 5 -4 6 -12 9 -17 6 -5 -4 -12 1 -15
9 -3 9 -13 16 -21 16 -8 0 -11 5 -8 10 3 6 1 10 -4 10 -6 0 -11 6 -11 14 0 8
-13 20 -30 28 -18 8 -30 20 -30 32 0 11 -3 16 -6 13 -8 -7 -44 31 -44 45 0 5
-5 6 -11 3 -6 -4 -13 2 -16 14 -3 11 -9 19 -13 16 -4 -3 -14 3 -21 12 -12 14
-12 16 0 8 10 -5 12 -4 7 3 -4 7 -13 12 -20 12 -8 0 -16 9 -19 20 -3 11 -12
20 -21 20 -9 0 -16 7 -16 16 0 8 -3 13 -7 11 -10 -6 -74 59 -66 67 4 3 -1 6
-10 6 -9 0 -17 7 -17 16 0 8 -3 13 -7 11 -10 -6 -34 19 -26 27 4 3 1 6 -5 6
-6 0 -32 21 -59 47 -26 27 -51 47 -55 45 -5 -1 -8 3 -8 10 0 6 -18 28 -40 49
-22 21 -40 43 -40 49 0 6 -4 8 -10 5 -5 -3 -10 -1 -10 5 0 6 -5 8 -12 4 -8 -5
-9 -2 -4 12 4 10 4 16 1 12 -8 -8 -110 94 -107 106 2 5 -4 6 -13 2 -9 -3 -14
-2 -12 2 7 10 -59 72 -68 64 -5 -4 -5 -2 -2 4 4 6 -1 20 -9 30 -9 10 -13 13
-9 7 4 -8 1 -11 -9 -7 -8 3 -12 12 -9 20 3 8 -1 14 -10 14 -8 0 -18 7 -21 16
-3 8 -11 12 -17 8 -7 -4 -9 -3 -5 4 3 6 -3 17 -14 25 -11 7 -17 17 -13 20 3 4
-1 7 -10 7 -9 0 -17 8 -17 17 0 9 -3 13 -7 10 -3 -4 -13 2 -20 13 -8 11 -19
18 -24 14 -5 -3 -9 -2 -8 3 3 17 -1 36 -7 30 -8 -8 -33 16 -27 26 2 4 -3 7
-12 7 -9 0 -13 5 -10 10 3 6 -1 10 -10 10 -9 0 -13 5 -10 10 3 6 1 10 -5 10
-16 0 -81 66 -73 74 6 6 -13 10 -32 6 -5 -1 -7 1 -3 5 8 8 -42 61 -55 57 -5
-1 -6 1 -3 6 3 5 -6 19 -19 30 -14 12 -25 27 -25 33 0 8 -6 7 -17 -2 -11 -10
-14 -10 -9 -1 4 7 2 12 -6 12 -9 0 -9 3 2 10 9 6 10 10 3 10 -6 0 -24 13 -39
29 -15 17 -31 28 -36 25 -4 -3 -8 0 -8 6 0 12 -50 65 -50 53 0 -4 -4 -3 -8 4
-6 9 -11 8 -20 -5z m-871 -8049 c13 -16 12 -17 -3 -4 -17 13 -22 21 -14 21 2
0 10 -8 17 -17z m226 -38 c0 -8 -4 -12 -9 -9 -5 3 -6 10 -3 15 9 13 12 11 12
-6z"/>
<path d="M14689 7073 c-13 -16 -12 -17 4 -4 9 7 17 15 17 17 0 8 -8 3 -21 -13z"/>
<path d="M12209 4593 c-13 -16 -12 -17 4 -4 16 13 21 21 13 21 -2 0 -10 -8
-17 -17z"/>
<path d="M11489 3873 c-13 -16 -12 -17 4 -4 9 7 17 15 17 17 0 8 -8 3 -21 -13z"/>
<path d="M18209 1283 c-13 -16 -12 -17 4 -4 16 13 21 21 13 21 -2 0 -10 -8
-17 -17z"/>
</g>
</svg>
